<?xml version="1.0" encoding="UTF-8" standalone="no"?><!DOCTYPE svg PUBLIC "-//W3C//DTD SVG 1.1//EN" "http://www.w3.org/Graphics/SVG/1.1/DTD/svg11.dtd"><svg width="100%" height="100%" viewBox="0 0 1057 1480" version="1.1" xmlns="http://www.w3.org/2000/svg" xmlns:xlink="http://www.w3.org/1999/xlink" xml:space="preserve" xmlns:serif="http://www.serif.com/" style="fill-rule:evenodd;clip-rule:evenodd;stroke-linejoin:round;stroke-miterlimit:2;"><rect id="Page-8" serif:id="Page 8" x="-0" y="0" width="1056.744" height="1479.645" style="fill:none;"/><path d="M498.792,644.665l24.975,-92.833l295.183,15.867l-15.8,114.183l-304.358,-37.217Zm550.183,705.492c-16.329,-3.925 -32.6,-7.733 -48.654,-11.392c-141.55,-29.454 -233.779,-85.083 -280.663,-226.971c-2.812,-8.308 -5.046,-16.763 -7.558,-25.146l49.408,-5.929l163.329,-134.237l-43.575,-36.417l-166.421,66.717l-15.525,62c-21.375,-91.321 -28.217,-186.204 -30.508,-280.946l172.9,96.067l81.75,-131.133l-78.492,-71.817l129.179,18.325l9.583,-257.008l-315.613,25.013l-20.342,84.175l-7.225,-93.996l-245.058,-154.029c-21.542,8.071 -30.358,11.371 -51.9,19.442l-86.833,287.942l227.358,38.8l0.913,7.604l-178.125,90.038l181.217,181.154l113.238,-156.371l18.321,-2.196c-3.9,82.296 -4.175,165.183 3.996,248.763c2.354,29.854 6.5,60.467 12.613,90.942l-42.054,11.179l-252.688,-3.175l37.858,78.929l167.758,50.996l106.538,-70.208c30.65,96.867 85.987,185.05 179.221,233.025c67.217,36.425 140.608,55.167 211.612,77.829" style="fill:#111;fill-rule:nonzero;"/><path d="M710.33,180.578l43.383,-172.925l-71.558,-3.35l4.417,173.646c0.354,14.033 20.342,16.246 23.758,2.629" style="fill:#111;fill-rule:nonzero;"/><path d="M178.408,789.133l-167.821,60.171l37.029,61.321l141.829,-100.287c11.458,-8.104 2.175,-25.942 -11.038,-21.204" style="fill:#111;fill-rule:nonzero;"/><path d="M136.378,82.928l-45.263,64.412l146.325,94.196c11.825,7.613 25.521,-9.658 16.279,-20.533l-117.342,-138.075Z" style="fill:#111;fill-rule:nonzero;"/></svg>