<?xml version="1.0" encoding="UTF-8" standalone="no"?><!DOCTYPE svg PUBLIC "-//W3C//DTD SVG 1.1//EN" "http://www.w3.org/Graphics/SVG/1.1/DTD/svg11.dtd"><svg width="100%" height="100%" viewBox="0 0 1463 991" version="1.1" xmlns="http://www.w3.org/2000/svg" xmlns:xlink="http://www.w3.org/1999/xlink" xml:space="preserve" xmlns:serif="http://www.serif.com/" style="fill-rule:evenodd;clip-rule:evenodd;stroke-linejoin:round;stroke-miterlimit:2;"><rect id="Page-6" serif:id="Page 6" x="0" y="0" width="1462.491" height="990.83" style="fill:none;"/><clipPath id="_clip1"><rect x="0" y="0" width="1462.491" height="990.83"/></clipPath><g clip-path="url(#_clip1)"><path d="M1296.259,892.245c-2.646,0.325 -4.521,2.729 -4.196,5.371l1.6,13.017l-22.025,0.567l26.683,-28.617l-9.046,-5.208l-22.642,-1.771l-3.854,13.154c-0.746,2.554 0.721,5.229 3.275,5.979c2.554,0.75 5.233,-0.717 5.979,-3.275l1.65,-5.633l7.858,0.612l-27.258,29.229l10.275,5.354l39.971,-1.025l-2.896,-23.558c-0.329,-2.646 -2.746,-4.508 -5.375,-4.196" style="fill:#111;fill-rule:nonzero;"/><path d="M1367.613,903.492c-2.504,0.908 -3.796,3.675 -2.888,6.175l1.321,3.642l-15.521,0l14.092,-29.9l-9.05,-6.042l-21.829,1.967l3.758,12.196c0.779,2.546 3.487,3.967 6.021,3.188c2.546,-0.783 3.975,-3.479 3.192,-6.025l-0.254,-0.825l5.642,-0.508l-14.467,30.708l7.883,4.879l34.283,0l-6.008,-16.567c-0.908,-2.5 -3.679,-3.792 -6.175,-2.888" style="fill:#111;fill-rule:nonzero;"/><path d="M1316.339,909.33l-1.717,-20.217l9.217,2.246l1.229,16.754l-8.729,1.217Zm-12.454,-32.75l3.708,43.7l27.746,-3.862l-2.396,-32.767l-29.058,-7.071Z" style="fill:#111;fill-rule:nonzero;"/><path d="M463.987,136.267c4.492,-0.133 8.021,-3.879 7.887,-8.371c-0.133,-4.492 -3.879,-8.021 -8.371,-7.888c-4.488,0.133 -8.021,3.879 -7.887,8.371c0.133,4.488 3.879,8.021 8.371,7.888" style="fill:#111;fill-rule:nonzero;"/><path d="M495.047,107.549c3.175,-0.096 5.671,-2.746 5.579,-5.921c-0.096,-3.175 -2.746,-5.671 -5.921,-5.575c-3.175,0.092 -5.671,2.742 -5.579,5.917c0.096,3.175 2.746,5.675 5.921,5.579" style="fill:#111;fill-rule:nonzero;"/><path d="M452.797,83.69c2.238,-0.067 4,-1.938 3.933,-4.175c-0.067,-2.242 -1.933,-4 -4.175,-3.933c-2.238,0.062 -4,1.933 -3.933,4.175c0.067,2.238 1.933,4 4.175,3.933" style="fill:#111;fill-rule:nonzero;"/><path d="M87.989,642.77c4.071,1.9 8.908,0.142 10.813,-3.929c1.9,-4.071 0.142,-8.908 -3.929,-10.808c-4.071,-1.904 -8.913,-0.146 -10.812,3.925c-1.9,4.071 -0.142,8.913 3.929,10.812" style="fill:#111;fill-rule:nonzero;"/><path d="M76.254,618.182c2.879,1.346 6.3,0.1 7.646,-2.779c1.342,-2.875 0.1,-6.3 -2.779,-7.642c-2.879,-1.346 -6.3,-0.1 -7.646,2.775c-1.342,2.879 -0.1,6.3 2.779,7.646" style="fill:#111;fill-rule:nonzero;"/><path d="M1176.808,427.112c-0.025,-4.492 -3.683,-8.113 -8.175,-8.092c-4.492,0.025 -8.117,3.683 -8.092,8.175c0.021,4.496 3.683,8.117 8.175,8.092c4.492,-0.021 8.117,-3.683 8.092,-8.175" style="fill:#111;fill-rule:nonzero;"/><path d="M1200.467,407.337c3.175,-0.017 5.737,-2.604 5.721,-5.779c-0.017,-3.179 -2.604,-5.737 -5.779,-5.721c-3.175,0.017 -5.737,2.604 -5.721,5.779c0.017,3.175 2.604,5.738 5.779,5.721" style="fill:#111;fill-rule:nonzero;"/><path d="M1222.337,468.608c5.008,-0.025 9.046,-4.108 9.021,-9.117c-0.029,-5.004 -4.108,-9.046 -9.117,-9.017c-5.008,0.025 -9.046,4.104 -9.021,9.113c0.029,5.008 4.108,9.046 9.117,9.021" style="fill:#111;fill-rule:nonzero;"/><path d="M1319.674,783.159c-3.175,0.096 -5.671,2.746 -5.579,5.921c0.096,3.171 2.746,5.671 5.921,5.575c3.175,-0.092 5.671,-2.742 5.579,-5.917c-0.096,-3.175 -2.746,-5.675 -5.921,-5.579" style="fill:#111;fill-rule:nonzero;"/><path d="M1316.003,855.475c0.15,5.004 4.325,8.942 9.333,8.796c5.004,-0.15 8.942,-4.329 8.792,-9.333c-0.146,-5.004 -4.325,-8.942 -9.329,-8.796c-5.008,0.15 -8.946,4.329 -8.796,9.333" style="fill:#111;fill-rule:nonzero;"/><path d="M1305.845,823.781c-0.108,-3.587 -3.1,-6.413 -6.688,-6.304c-3.592,0.108 -6.413,3.1 -6.304,6.688c0.104,3.592 3.1,6.413 6.688,6.308c3.588,-0.108 6.408,-3.104 6.304,-6.692" style="fill:#111;fill-rule:nonzero;"/><path d="M96.872,400.852l75.475,-4.887c1.442,-0.092 2.775,-0.738 3.658,-1.775c0.75,-0.875 1.108,-1.958 1.013,-3.046l-26.45,-291.038c-0.054,-0.596 0.238,-1.029 0.492,-1.288c0.55,-0.567 1.454,-0.871 2.4,-0.804l16.138,1.079c1.158,0.079 2.183,0.704 2.554,1.558l80.05,184.417c1.046,2.408 5.463,2.383 6.267,2.354c1.346,0.038 33.108,0.946 42.629,-3.642l0.379,-0.183l1.1,-2.75l40.246,-134.487c0.337,-0.829 1.346,-1.317 2.438,-1.229l37.821,3.696c1.283,0.125 2.3,1.087 2.271,2.146l-6.725,248.079c-0.029,1.15 0.413,2.238 1.25,3.062c0.862,0.85 2.062,1.333 3.325,1.333c0.062,0 0.129,0 0.192,-0.004l68.317,-2.587c1.275,-0.05 2.479,-0.613 3.304,-1.537c0.775,-0.867 1.158,-1.971 1.075,-3.1l-21.167,-284.875c-0.167,-2.246 -2.254,-3.938 -4.742,-3.983l-19.383,0.408c-4.662,0.088 -23.971,0.5 -44.175,0.933c-20.425,0.437 -41.763,0.892 -49.796,1.05c-1.983,0.038 -3.658,1.208 -4.167,2.913l-33.717,113.104c-0.337,1.125 -1.458,1.554 -2.392,1.583c-0.929,0.004 -2.225,-0.367 -2.658,-1.571l-61.346,-169.396c-0.721,-1.988 -2.95,-3.271 -5.3,-3.063l-97.883,8.958c-2.404,0.221 -4.208,1.888 -4.296,3.954l-13.575,330.058c-0.05,1.175 0.404,2.288 1.271,3.138c1.029,1.008 2.521,1.512 4.108,1.421" style="fill:#111;fill-rule:nonzero;"/><path d="M611.693,357.009c-0.421,0.421 -0.996,0.637 -1.596,0.567l-73.283,-7.821c-0.967,-0.104 -1.708,-0.883 -1.762,-1.858l-9.888,-178.104c-0.033,-0.621 0.221,-1.208 0.696,-1.608c0.363,-0.308 0.812,-0.471 1.279,-0.471c0.146,0 0.296,0.017 0.446,0.05c18.438,4.175 42.942,9.317 69.008,11.987c0.975,0.1 1.712,0.879 1.763,1.846c2.658,54.704 7.208,111.554 13.904,173.8c0.067,0.6 -0.142,1.188 -0.567,1.613m-121.663,38.708l0.046,0l20.379,-0.233c4.662,-0.05 31.554,-0.358 60.446,-0.696l75.008,-0.858c1.121,-0.012 2.158,-0.463 2.933,-1.267c0.775,-0.804 1.183,-1.858 1.154,-2.979c-2.258,-86 -6.658,-167.542 -13.079,-242.338c-0.171,-1.971 -1.717,-3.562 -3.683,-3.779c-37.996,-4.192 -78.746,-6.15 -121.067,-5.812l-10.021,0.046c-2.2,0.008 -4.004,1.737 -4.108,3.933l-12.137,249.646c-0.058,1.133 0.363,2.254 1.15,3.071c0.779,0.804 1.862,1.267 2.979,1.267" style="fill:#111;fill-rule:nonzero;"/><path d="M420.038,563.732c-0.046,-1.442 1.442,-3.196 2.946,-3.471l81.725,-14.925c0.592,-0.112 1.112,-0.017 1.454,0.258c0.279,0.217 0.433,0.562 0.454,0.992l10.121,227.504c0.05,1.221 -0.471,2.467 -1.4,3.337c-0.787,0.746 -1.767,1.096 -2.9,1.013c-32.562,3.096 -63.579,-0.5 -89.821,-4.454c-0.483,-0.004 -0.975,-0.154 -1.325,-0.5c-0.446,-0.442 -0.679,-1.125 -0.658,-1.921c1.762,-71.013 1.567,-138.996 -0.596,-207.833m-35.396,-24.462c-7.146,93.025 -11.904,189.533 -14.146,286.85c-0.029,1.442 0.421,2.729 1.275,3.617c0.704,0.733 1.654,1.146 2.671,1.167c4.587,0.075 9.233,0.112 13.942,0.112c43.967,0 93.2,-3.267 146.579,-9.729l14.892,-1.746c2.962,-0.346 5.358,-3.104 5.458,-6.275l0.442,-14.438l-8.442,-296.158c0.038,-1.158 -0.425,-2.154 -1.292,-2.812c-1.029,-0.775 -2.479,-0.938 -3.879,-0.492c-1.333,0.287 -133.308,28.5 -153.454,34.937c-2.108,0.679 -3.887,2.858 -4.046,4.967" style="fill:#111;fill-rule:nonzero;"/><path d="M686.417,384.882c0.087,1.138 0.621,2.158 1.508,2.879c0.883,0.721 1.996,1.025 3.142,0.892l54.629,-7.038c1.129,-0.146 2.158,-0.758 2.821,-1.679c0.667,-0.921 0.925,-2.087 0.712,-3.2l-22.85,-119.392c-0.242,-1.271 0.571,-2.008 1.342,-2.254c0.775,-0.25 1.862,-0.117 2.4,1.062l63.425,139.004c0.65,1.429 2.083,2.375 3.646,2.421l46.808,1.329l0.112,0c1.121,0 2.196,-0.458 2.971,-1.262c0.808,-0.837 1.225,-1.988 1.146,-3.15l-16.767,-251.879c-0.075,-1.129 -0.592,-2.154 -1.454,-2.883c-0.862,-0.729 -1.946,-1.067 -3.083,-0.958l-43.263,4.275c-1.129,0.113 -2.138,0.667 -2.842,1.558c-0.7,0.892 -1.004,2 -0.85,3.125l24.717,178.746c0.175,1.25 -0.65,1.95 -1.408,2.167c-0.75,0.229 -1.825,0.071 -2.346,-1.075l-84.454,-185.092c-0.596,-1.308 -1.85,-2.225 -3.275,-2.392l-9.017,-1.067c-4.088,-0.479 -10.146,-1.2 -16.358,-1.938l-15.683,-1.862c-1.237,-0.154 -2.462,0.263 -3.358,1.125c-0.887,0.854 -1.342,2.054 -1.246,3.283c0.95,12.312 4.142,53.817 7.654,99.483c4.704,61.179 9.983,129.829 11.221,145.771" style="fill:#111;fill-rule:nonzero;"/><path d="M906.625,159.137c-0.1,-0.575 0.054,-1.158 0.425,-1.604c0.371,-0.45 0.896,-0.7 1.479,-0.708l48.55,-0.825c1.133,0.054 1.913,0.792 1.983,1.846l6.667,98.725c0.046,0.642 -0.217,1.242 -0.708,1.654c-0.492,0.408 -1.129,0.554 -1.75,0.396l-39.946,-10.175c-0.754,-0.192 -1.329,-0.812 -1.463,-1.579l-15.237,-87.729Zm-11.525,206.408c0.229,2.108 1.996,3.667 4.092,3.667c0.104,0 0.208,-0.004 0.312,-0.012c12.654,-0.929 45.579,-5.283 77.421,-9.496c32.108,-4.25 65.304,-8.642 78.2,-9.596c2.246,-0.163 3.917,-2.067 3.804,-4.325l-1.292,-25.963c-0.112,-2.221 -1.917,-3.929 -4.125,-3.929l-0.108,0l-116.633,6.938c-0.988,0.113 -1.829,-0.679 -1.996,-1.637l-6.592,-37.95c-0.108,-0.608 0.071,-1.221 0.488,-1.675c0.417,-0.454 1.004,-0.679 1.625,-0.633l54.629,4.592c1.175,0.104 2.283,-0.267 3.133,-1.029c0.846,-0.758 1.325,-1.812 1.354,-2.971l1.562,-68.771c0.812,-35.729 1.679,-73.746 2,-87.55c0.025,-1.154 -0.408,-2.229 -1.225,-3.033c-0.821,-0.804 -1.908,-1.225 -3.067,-1.171l-115.338,4.883c-1.158,0.05 -2.208,0.554 -2.958,1.425c-0.746,0.871 -1.088,1.983 -0.963,3.133l25.675,235.104Z" style="fill:#111;fill-rule:nonzero;"/><path d="M1067.364,246.083c0.612,1.446 1.963,2.367 3.517,2.404l67.162,1.704c1.079,0.025 1.925,0.896 1.921,1.979l-0.371,133.387c-0.004,1.075 -0.879,1.963 -1.95,1.975l-170.475,2.304c-1.129,0.017 -2.179,0.479 -2.954,1.296c-0.771,0.821 -1.171,1.892 -1.125,3.017l1.092,25.642c0.05,1.125 0.538,2.158 1.379,2.908c0.767,0.683 1.733,1.05 2.746,1.05c0.1,0 0.2,0 0.3,-0.008l190.413,-13.413c2.013,-0.146 3.621,-1.708 3.821,-3.717l24.879,-247.75c0.117,-1.142 -0.233,-2.246 -0.983,-3.112c-0.746,-0.871 -1.792,-1.379 -2.933,-1.433l-39.233,-1.867c-1.138,-0.046 -2.225,0.346 -3.05,1.133c-0.825,0.783 -1.283,1.846 -1.288,2.983l-0.167,60.354c-0.004,0.979 -0.737,1.817 -1.704,1.95l-53.208,7.375c-0.983,0.142 -1.912,-0.475 -2.175,-1.425l-24.183,-86.604c-0.304,-1.1 -1.033,-2.004 -2.042,-2.542c-1.013,-0.538 -2.171,-0.629 -3.254,-0.267l-24.788,8.308c-1.092,0.367 -1.987,1.175 -2.458,2.225c-0.471,1.046 -0.487,2.254 -0.033,3.312l41.146,96.829Z" style="fill:#111;fill-rule:nonzero;"/><path d="M129.251,584.94l2.375,-71.613c0.05,-1.504 1.188,-2.75 2.679,-2.933l35.583,-4.392c1.754,-0.217 2.958,-1.871 2.625,-3.608l-4.229,-22.058c-0.329,-1.721 -2.033,-2.812 -3.733,-2.396l-28.096,6.917c-1.967,0.483 -3.85,-1.046 -3.783,-3.071l1.058,-31.917c0.054,-1.671 1.442,-2.988 3.113,-2.954l52.537,1.038c1.746,0.033 3.167,-1.4 3.113,-3.146l-0.842,-28.429c-0.05,-1.746 -1.55,-3.092 -3.292,-2.954c-15.238,1.192 -65.813,5.242 -79.858,6.333c-1.612,0.125 -2.842,1.487 -2.812,3.104l0.188,9.792l2.871,152.167c0.029,1.658 1.379,2.988 3.037,3l14.396,0.075c1.654,0.008 3.017,-1.3 3.071,-2.954" style="fill:#111;fill-rule:nonzero;"/><path d="M224.662,438.399l40.108,10.175c1.467,0.067 2.646,1.467 2.742,3.229c1.308,24.571 3.342,48.617 5.775,73.408c0.196,1.996 -1.067,3.779 -2.738,3.862c-15.533,0.771 -30.529,1.792 -45.696,3.508c-1.679,0.192 -3.133,-1.358 -3.137,-3.392c-0.025,-20.883 -0.013,-71.867 -0.033,-87.358c0,-1.962 1.35,-3.508 2.979,-3.433m63.758,107.979c1.35,-0.308 2.325,-1.721 2.342,-3.375c0.321,-38.829 -0.288,-78.825 -2.104,-117.758c-0.092,-1.971 -1.512,-3.442 -3.142,-3.25c-13.667,1.621 -64.025,-0.867 -70.838,-0.017l-3.692,0.433c-1.367,0.163 -2.45,1.467 -2.579,3.113l-0.325,4.092c-0.642,8.167 -7.888,107.529 -9.563,128.763c-0.175,2.188 1.363,4.004 3.175,3.758c28.825,-3.908 58.383,-9.296 86.725,-15.758" style="fill:#111;fill-rule:nonzero;"/><path d="M399.519,425.368c-6.404,-3.25 -16.717,-8.5 -23.067,-11.721c-0.95,-0.483 -2.075,-0.442 -2.979,0.121c-3.575,2.2 -12.971,7.987 -22.188,13.658c-1.95,1.2 -4.475,-0.092 -4.646,-2.375l-0.283,-3.775c-0.121,-1.596 -1.45,-2.829 -3.05,-2.829l-18.125,0c-1.604,0 -2.933,1.242 -3.05,2.838l-7.137,101.812c-0.129,1.771 1.271,3.275 3.046,3.275l30.358,0c1.779,0 3.183,-1.513 3.05,-3.283l-2.408,-66.092c-0.079,-1.017 0.354,-2 1.154,-2.629l22.488,-17.733c1.221,-0.958 2.967,-0.854 4.058,0.246c0.554,0.554 0.875,1.3 0.892,2.087l0.654,28.458c0.038,1.683 1.429,3.021 3.117,2.988l17.692,-0.363c1.692,-0.033 3.033,-1.433 2.996,-3.125c-0.2,-8.871 -0.754,-31.808 -0.904,-38.904c-0.025,-1.125 -0.663,-2.146 -1.667,-2.654" style="fill:#111;fill-rule:nonzero;"/><path d="M256.26,606.058c-0.912,-0.7 -2.079,-0.992 -3.217,-0.788c-9.504,1.671 -40.467,6.325 -70.412,10.825c-26.354,3.967 -51.25,7.708 -58.463,8.963c-1.938,0.333 -3.375,2.012 -3.413,3.992l-5.042,259.554c-0.025,1.142 0.412,2.217 1.225,3.021c0.783,0.775 1.808,1.196 2.9,1.196c0.046,0 0.087,-0.004 0.133,-0.004l45.471,-1.346c1.146,-0.038 2.196,-0.521 2.958,-1.375c0.763,-0.85 1.133,-1.946 1.042,-3.083l-9.929,-125.913c-0.083,-1.054 0.675,-1.988 1.571,-2.108l66.833,1.008c1.188,-0.15 2.254,-0.804 2.921,-1.8c0.667,-0.996 0.867,-2.229 0.554,-3.379l-9.079,-33.558c-0.308,-1.142 -1.092,-2.1 -2.15,-2.625c-1.013,-0.504 -2.196,-0.567 -3.258,-0.188l-57.504,8.608c-0.587,0.233 -1.233,0.183 -1.775,-0.154c-0.542,-0.333 -0.879,-0.892 -0.929,-1.525l-5.629,-71.35c-0.042,-0.562 0.146,-1.096 0.529,-1.504c0.379,-0.413 0.817,-0.629 1.463,-0.629l104.033,1.404l0.046,0c1.15,0 2.25,-0.483 3.033,-1.321c0.792,-0.854 1.188,-2.008 1.087,-3.167l-3.4,-39.817c-0.1,-1.163 -0.683,-2.233 -1.6,-2.938" style="fill:#111;fill-rule:nonzero;"/><path d="M740.391,842.039c-0.583,-1.921 -2.442,-3.138 -4.379,-2.904l-404.617,21.421c-0.629,0.058 -1.233,-0.142 -1.667,-0.596c-0.438,-0.458 -0.621,-1.075 -0.504,-1.817l15.537,-274.5c0.192,-1.133 -0.1,-2.308 -0.796,-3.217c-0.7,-0.913 -1.754,-1.496 -2.9,-1.6l-53.746,-5.25c-1.113,-0.125 -2.175,0.229 -3.025,0.938c-0.85,0.704 -1.375,1.7 -1.483,2.888l-2.708,295.704l-0.708,14.7c-0.054,1.146 0.375,2.275 1.183,3.096c0.775,0.788 1.846,1.233 2.95,1.233l0.121,0l14.304,-0.421l449.837,-2.438c1.271,-0.079 2.421,-0.721 3.15,-1.771c0.725,-1.046 0.929,-2.346 0.567,-3.529l-11.117,-41.938Z" style="fill:#111;fill-rule:nonzero;"/><path d="M643.46,605.11l0.175,8.362l-14.733,150.733c-0.017,0.921 -0.654,1.7 -1.55,1.9l-0.558,0.125l-9.263,-290.604c-0.058,-1.129 -0.562,-2.163 -1.421,-2.908c-0.854,-0.742 -1.95,-1.113 -3.079,-0.996l-50.208,4.488c-1.137,0.104 -2.15,0.646 -2.862,1.537c-0.712,0.892 -1.021,2 -0.867,3.138l42.967,301.775l0.854,6.379c0.246,1.825 1.625,3.242 3.433,3.533l57.304,9.154c1.225,0.208 2.462,-0.158 3.392,-0.983c0.929,-0.821 1.438,-2 1.396,-3.242l-0.625,-17.396l6.996,-56.971c-0.042,-1.379 0.95,-1.954 1.808,-2.025c0.842,-0.083 1.929,0.321 2.125,1.7l11.354,75.217l1.712,8.504c0.333,1.667 1.625,2.942 3.283,3.25l67.221,12.4c0.25,0.046 0.504,0.071 0.758,0.067c1,0 1.967,-0.363 2.729,-1.046c0.962,-0.854 1.462,-2.088 1.371,-3.379l-1.446,-20.825l-19.592,-337.321c-0.075,-1.1 -0.575,-2.108 -1.412,-2.833c-0.833,-0.725 -1.875,-1.096 -3.004,-1.004l-35.492,2.492c-1.108,0.079 -2.117,0.583 -2.842,1.421c-0.725,0.837 -1.075,1.913 -0.992,3.004l20.329,315.175l-0.917,-0.008l-28.279,-169.029l-3.171,-16.725c-0.213,-1.117 -0.883,-2.104 -1.837,-2.717c-0.963,-0.613 -2.142,-0.804 -3.246,-0.521l-20.746,5.271c-0.158,0.042 -0.292,0.079 -0.433,0.137l-17.983,6.829c-1.617,0.617 -2.683,2.2 -2.65,3.942" style="fill:#111;fill-rule:nonzero;"/><path d="M882.855,862.186c-7.254,0.054 -21.771,0.067 -37.4,-0.325c-0.979,-0.025 -1.804,-0.779 -1.917,-1.746l-29.25,-246.308c-0.067,-0.562 0.112,-1.133 0.492,-1.554c0.383,-0.429 1.008,-0.633 1.496,-0.654l37.008,0.504c1.225,0.025 2.263,-0.45 3.054,-1.283c0.792,-0.829 1.204,-1.963 1.133,-3.112l-2.067,-32.721c-0.071,-1.142 -0.621,-2.217 -1.508,-2.942c-0.883,-0.725 -2.042,-1.062 -3.183,-0.896l-38.833,5.337c-0.521,0.067 -1.05,-0.067 -1.475,-0.392c-0.425,-0.329 -0.692,-0.804 -0.754,-1.333l-11.638,-98.004c-0.071,-0.575 0.108,-1.129 0.496,-1.558c0.379,-0.425 0.929,-0.667 1.496,-0.65l70.458,1.163c1.175,0.017 2.183,-0.412 2.979,-1.196c0.8,-0.796 1.233,-1.85 1.225,-2.975l-0.221,-25.675c-0.008,-1.133 -0.462,-2.187 -1.275,-2.967c-0.804,-0.771 -1.879,-1.133 -2.983,-1.133l-101.183,3.596c-1.137,0.042 -2.183,0.529 -2.938,1.387c-0.758,0.854 -1.125,1.954 -1.029,3.096l38.25,452.392c0.092,1.129 0.625,2.142 1.496,2.858c0.737,0.608 1.646,0.933 2.592,0.933c0.154,0 0.308,-0.008 0.463,-0.025c7.704,-0.838 21.567,-2.625 36.242,-4.513c15.433,-1.987 31.392,-4.042 39.996,-4.958c2.133,-0.229 3.758,-2.087 3.696,-4.242l-0.775,-26.092c-0.071,-2.267 -1.954,-3.912 -4.142,-4.012" style="fill:#111;fill-rule:nonzero;"/><path d="M922.988,478.587c0.371,-0.337 0.837,-0.517 1.329,-0.517c0.125,0 0.254,0.008 0.379,0.038l37.646,7.296c0.779,0.154 1.392,0.754 1.558,1.529l16.2,75.979c0.117,0.562 -0.012,1.146 -0.358,1.604c-0.346,0.458 -0.875,0.742 -1.446,0.779l-45.25,2.975c-1.042,0.063 -1.987,-0.708 -2.096,-1.779l-8.596,-86.25c-0.062,-0.625 0.167,-1.229 0.633,-1.654m46.517,118.042c-0.158,-0.55 -0.083,-1.117 0.212,-1.6c0.3,-0.487 0.771,-0.808 1.333,-0.908l34.788,-6.288c2.021,-0.367 3.45,-2.112 3.4,-4.154l-1.596,-63.417c-0.738,-29.279 -1.5,-59.529 -1.829,-72.854c-0.025,-1.112 -0.483,-2.146 -1.288,-2.908c-0.796,-0.754 -1.812,-1.138 -2.942,-1.121c-7.637,0.217 -22.908,0.633 -39.133,1.075c-22.842,0.629 -47.575,1.304 -55.529,1.538l-11.967,0.329c-1.117,0.033 -2.15,0.5 -2.908,1.312c-0.762,0.817 -1.154,1.879 -1.108,2.996l18.079,437.325c0.046,1.125 0.533,2.154 1.371,2.908c0.842,0.75 1.929,1.104 3.042,1.046l45.362,-3.108c1.129,-0.075 2.15,-0.596 2.879,-1.458c0.729,-0.862 1.067,-1.954 0.954,-3.079l-28.079,-281.7c-0.1,-1.021 0.608,-1.958 1.617,-2.138l10.304,-1.867c0.521,-0.104 1.05,0.025 1.488,0.333c0.438,0.304 0.725,0.763 0.812,1.288l48.95,294.738c0.188,1.129 0.813,2.104 1.763,2.746c0.696,0.471 1.492,0.713 2.308,0.713c0.296,0 0.6,-0.033 0.904,-0.1l48.583,-10.742c1.117,-0.246 2.088,-0.95 2.671,-1.938c0.579,-0.987 0.725,-2.179 0.4,-3.275l-84.842,-285.692Z" style="fill:#111;fill-rule:nonzero;"/><path d="M1248.112,592.674l49.942,-2.683l4.225,15.704l-51.492,6.3l-2.675,-19.321Zm-66.671,-129.587c-0.179,-1.867 -1.596,-3.383 -3.442,-3.683c-8.146,-1.312 -27.667,-4.475 -48.458,-7.842c-26.029,-4.217 -54.046,-8.758 -64.208,-10.388c-1.733,-0.292 -3.454,0.558 -4.279,2.092c-1.779,3.279 -4.371,8.113 -7.033,13.075c-3.475,6.479 -7.071,13.187 -9.15,16.975c-0.35,0.642 -0.517,1.342 -0.496,2.088l4.65,156.858c0.033,1.108 0.496,2.133 1.308,2.892c1.383,1.292 4.112,3.829 6.996,6.513c4.546,4.225 9.7,9.008 10.162,9.475l5.096,4.75c1.054,0.983 2.521,1.346 3.913,0.963l72.617,-19.913l0.071,225.075c0,0.258 -0.046,0.504 -0.142,0.738l-0.438,1.096c-0.242,0.6 -0.758,1.046 -1.388,1.192l-31.867,7.4c-0.413,0.087 -0.838,0.054 -1.225,-0.108l-4.021,-1.712c-0.596,-0.258 -1.029,-0.788 -1.158,-1.429l-34.8,-171.446c-0.446,-2.192 -2.508,-3.6 -4.721,-3.258l-22.196,3.625c-2.233,0.367 -3.738,2.404 -3.429,4.642l27.154,197.725c0.267,1.929 1.796,3.392 3.725,3.558l40.671,3.454l56.608,-13.15c1.304,-0.3 2.383,-1.229 2.883,-2.483l8.992,-22.442l6.296,-118.208c17.375,-9.062 37.779,-11.383 55.617,-21.046c15.771,-8.117 25.138,-23.038 30.321,-39.429l18.025,11.879l28.383,-8.625l6.408,-13.358l-42.754,0.538l-7.117,-1.892c1.037,-5.154 1.737,-10.333 2.133,-15.383c1.383,-14.142 1.338,-28.167 0.679,-42.092l3.1,0.371l19.158,26.458l30.658,-30.65l-30.137,-15.233l0.154,-1.288l38.471,-6.562l-14.692,-48.721c-3.646,-1.362 -5.138,-1.925 -8.783,-3.287l-41.462,26.058l-1.221,15.904l-3.442,-14.242l-53.4,-4.233l1.621,43.487l21.854,-3.1l-13.279,12.15l13.833,22.188l29.254,-16.254c-0.388,16.029 -1.546,32.083 -5.163,47.533l-2.629,-10.492l-28.154,-11.288l-7.375,6.163l27.633,22.712l8.362,1.004c-0.425,1.417 -0.804,2.85 -1.279,4.254c-7.933,24.004 -23.537,33.417 -47.487,38.4c-8.596,1.962 -17.508,4.054 -26.167,6.992l5.767,-108.221c0.083,-1.604 -0.779,-3.125 -2.204,-3.875l-10.446,-5.475c-5.979,-3.129 -12.288,-6.429 -15.096,-7.917l-10.167,-5.329l-0.004,0c-1.121,-0.588 -2.425,-0.633 -3.579,-0.129l-69.079,30.263c-0.533,0.237 -1.142,0.221 -1.671,-0.038c-0.442,-0.225 -0.783,-0.596 -0.963,-1.05l-4.483,-151.238l-0.183,-0.012l0.496,-5.163c0.054,-0.579 0.362,-1.104 0.842,-1.442c0.475,-0.333 1.067,-0.437 1.633,-0.288l62.321,16.554c0.942,0.25 1.567,1.167 1.454,2.133l-8.833,76.954c-0.133,1.167 0.237,2.337 1.013,3.217c0.771,0.871 1.879,1.379 3.046,1.392l45.45,0.458c1.158,-0.05 2.296,-0.475 3.083,-1.333c0.787,-0.854 1.175,-2.008 1.067,-3.171c-0.754,-8.025 -2.467,-27.354 -4.242,-47.338c-2.104,-23.7 -4.279,-48.217 -5.037,-55.992" style="fill:#111;fill-rule:nonzero;"/><path d="M1270.51,526.731l0.746,-29.379l-12.104,0.567l7.337,29.258c0.579,2.304 3.958,1.929 4.021,-0.446" style="fill:#111;fill-rule:nonzero;"/><path d="M1350.93,606.855l29.371,-1.05l-1.304,-12.046l-28.754,9.113c-2.267,0.717 -1.688,4.067 0.688,3.983" style="fill:#111;fill-rule:nonzero;"/><path d="M1174.768,579.742l-4.192,11.371l29.808,4.633c2.346,0.363 3.317,-2.896 1.154,-3.879l-26.771,-12.125Z" style="fill:#111;fill-rule:nonzero;"/><path d="M1330.249,95.563l97.083,839.508c-33.708,0.254 -1337.479,10.171 -1381.071,10.5c2.088,-271.554 4.983,-649.458 4.558,-919.038c373.642,21.054 905.488,49.721 1279.429,69.029m130.592,853.542l-84.446,-879.421c0,0 -2.021,-21.029 -2.021,-21.025c-395.229,-15.771 -944.775,-31.225 -1345.263,-45.192c-8.158,293.308 -22.987,697.646 -28.271,987.363l23.167,-0.388l1421.275,-23.837l17.208,-0.287l-1.65,-17.213Z" style="fill:#111;fill-rule:nonzero;"/><path d="M1398.292,903.965l-0.521,8.462l-7.463,-0.287l-4.354,-8.929l12.338,0.754Zm-14.117,17.587l22.646,0.875l1.679,-27.496l-27.333,-1.675l4.879,-10.329l13.467,5.908c2.442,1.071 5.283,-0.038 6.354,-2.479c1.067,-2.438 -0.046,-5.279 -2.479,-6.35l-22.054,-9.671l-10.896,23.054l13.738,28.162Z" style="fill:#111;fill-rule:nonzero;"/></g></svg>