<svg width="668" height="160" viewBox="0 0 668 160" fill="none" xmlns="http://www.w3.org/2000/svg">
<path d="M0.0671979 38.5769C-0.73839 33.951 6.04201 33.4817 9.33149 32.7778C19.8377 30.4983 32.7942 30.5988 43.7032 28.487L13.5273 25.1348L36.99 21.7827L30.3103 15.1455C72.1673 13.1007 114.226 3.64774 156.016 1.56941C261.178 -3.72696 367.113 5.86021 471.537 8.54191C506.681 9.44699 627.083 1.97157 649.807 11.5252C651.989 12.4638 662.697 19.9055 661.32 21.7827C651.083 27.2131 633.595 20.643 627.754 31.8391L668 28.5541L624.364 38.5769C624.565 44.242 622.115 45.7171 628.593 44.5438C642.825 41.9291 658.098 37.6383 667.966 51.9184C653.13 58.388 631.279 50.4434 621.007 65.3269L664.643 68.7126C666.557 78.0986 661.186 75.2492 654.54 75.4169L657.93 82.0207L637.824 92.1106L654.607 95.5297L647.894 105.519L664.643 108.871L651.251 115.576L668 120.637C664.878 124.727 663.603 128.615 659.172 131.934C598.182 177.791 408.735 154.058 330.795 152.348C236.004 150.27 141.481 155.131 47.0262 159.153L63.7757 145.812C47.0262 146.616 33.5662 151.611 16.8167 145.745L42.4613 139.577L53.7058 132.403L3.39021 125.632C2.18183 111.721 25.1412 117.185 34.3719 114.704C40.3803 113.095 56.7604 104.916 60.4191 98.8482L50.3158 97.1388L58.808 92.144C67.0317 82.691 18.2264 85.5069 13.4265 85.3728L20.7775 77.8305L53.6724 65.3269L3.35662 70.3217C11.3118 61.3715 24.1342 66.9696 34.5733 64.6231C44.1732 62.4442 52.5312 50.0413 67.0989 55.2036L46.9926 51.8514L67.1323 38.4765H0L0.0671979 38.5769Z" fill="#F6ECDE"/>
</svg>
