<svg width="1920" height="729" viewBox="0 0 1920 729" fill="none" xmlns="http://www.w3.org/2000/svg">
<path d="M609.718 110L756.657 92.7851L815.382 63.4752L947.704 104.968L1050.79 74.5989L1147.73 82.7209L1226.97 47.3196L1300.56 67.5363L1400.57 40.1686L1509.3 42.1992L1573.93 82.7209L1691.63 65.5058L1864.98 85.7225L2015 51.2923L1946.02 26.838L1864.21 45.5539L1690.86 25.3372L1573.16 42.5523L1508.53 2.03056L1399.55 9.51681e-05L1299.79 27.3676L1226.2 7.06259L1146.96 42.5522L1049.77 34.4303L946.934 64.7995L814.612 23.3067L755.888 52.6164L608.692 69.8315L441.238 53.6759L379.437 19.2456L214.803 42.5522L100.175 13.1541L14.7812 36.4607L-96 51.2922L15.8071 76.6293L100.945 53.3227L215.573 82.7208L380.462 59.4142L442.007 93.8444L609.718 110Z" fill="white" fill-opacity="0.2"/>
<path d="M609.718 110L756.657 92.785L815.382 63.4751L947.704 104.968L1050.79 74.5989L1147.73 82.7208L1226.97 47.3195L1300.56 67.5362L1400.57 40.1686L1509.3 42.1992L1573.93 82.7209L1691.63 65.5058L1864.98 85.7225L2015 51.2923L1926 567.5L1881 540.5L1771.5 547.5L1694 536L1609 560C1609 560 1432 540.5 1357.5 547C1283 553.5 1237 590 1237 590L1172 569.5L1011 591L955 574L830 578.5L700.5 556L593 580.5L464.5 578.5L398 597.5L287.5 582.5L227.5 611L130 616L76.5 642L-3.00003 645.5L-96 51.2922L15.8071 76.6293L100.945 53.3227L215.573 82.7208L380.462 59.4142L442.007 93.8444L609.718 110Z" fill="#F6ECDE"/>
<path d="M2374.06 719.44C2374.06 719.44 2308.04 723.264 2279.01 711.68C2249.98 700.095 2116.57 703.019 2116.57 703.019L2047.44 651.058C2047.44 651.058 1948.25 639.811 1943.75 639.811C1937.32 631.94 1933.38 623.874 1932 615.742L1881.19 584.025L1771.63 591.673L1693.52 580.426L1609.19 604.495L1482.34 592.011C1436.99 588.225 1389.44 588.225 1344.09 592.011C1274.97 598.534 1237.29 634.187 1237.29 634.187L1172.32 613.155L1010.91 634.637L954.225 617.429L830.145 622.153L700.535 599.659L592.354 624.177L464.127 622.265L398.113 641.16L287.167 626.539L227.719 654.432L129.907 659.606L77.0258 685.811L-26.662 690.535C-26.662 690.535 -17.3301 710.33 -50.1646 718.54C-83.5 724.328 -120.284 727.704 -158 728.438C-158 728.438 -84.036 682.775 -50.8559 674.564C-17.6758 666.354 -27.3533 646.672 -27.3533 646.672L76.3346 641.948L129.907 615.742L227.719 610.568L287.167 582.563L398.113 597.184L464.127 578.402L592.354 580.539L700.535 555.907L830.145 578.402L954.225 573.678L1010.91 590.886L1171.97 569.404L1236.95 589.649C1236.95 589.649 1273.93 553.995 1343.75 547.585C1389.07 543.735 1436.67 543.735 1482 547.585L1608.84 560.069L1693.17 536L1771.29 547.247L1881.19 540.049L1934.08 572.328C1935.45 580.461 1939.39 588.526 1945.83 596.397C1951.01 596.397 2049.51 607.644 2049.51 607.644L2118.64 659.718C2118.64 659.718 2252.05 656.681 2281.08 668.266C2310.12 679.85 2376.13 676.026 2376.13 676.026L2463.23 666.579L2532.35 675.352L2588 729L2464.96 710.442L2374.06 719.44Z" fill="white" fill-opacity="0.2"/>
</svg>
