<?xml version="1.0" encoding="UTF-8" standalone="no"?><!DOCTYPE svg PUBLIC "-//W3C//DTD SVG 1.1//EN" "http://www.w3.org/Graphics/SVG/1.1/DTD/svg11.dtd"><svg width="100%" height="100%" viewBox="0 0 1388 1453" version="1.1" xmlns="http://www.w3.org/2000/svg" xmlns:xlink="http://www.w3.org/1999/xlink" xml:space="preserve" xmlns:serif="http://www.serif.com/" style="fill-rule:evenodd;clip-rule:evenodd;stroke-linejoin:round;stroke-miterlimit:2;"><rect id="Page-11" serif:id="Page 11" x="0" y="0" width="1387.723" height="1452.591" style="fill:none;"/><path d="M548.16,791.337l20.242,-45.029c0.596,-1.321 1.554,-2.446 2.767,-3.242l165.45,-108.346c3.983,-2.608 9.358,-0.95 11.183,3.45l16.267,39.233c1.071,2.583 0.633,5.546 -1.133,7.713l-106.808,130.912c-1.542,1.888 -3.892,2.925 -6.325,2.783l-84.329,-4.867c-1.987,-0.117 -3.846,-1.004 -5.183,-2.475l-10.821,-11.908c-2.033,-2.237 -2.55,-5.467 -1.308,-8.225" style="fill:#111;fill-rule:nonzero;"/><path d="M566.971,389.085c18.354,104.383 16.992,211.329 9.013,316.504c-5.567,78.446 -15.629,155.958 -17.121,234.117c-1.825,72.608 6.992,154.008 54.292,209.592c23,26.938 54.312,48.287 86.887,62.746c22.992,11.05 49.85,18.213 72.987,29.154c9.183,4.271 27.608,13.537 36.529,18.354c58.933,32.362 114.767,68.733 168.179,109.5c10.75,8.304 21.371,16.996 32.192,26.946c11.467,10.554 12.212,28.408 1.658,39.875c-10.875,11.892 -29.683,12.158 -40.938,0.646c-17.275,-16.763 -37.842,-32.921 -57.454,-47.862c-40.842,-30.713 -83.738,-60.004 -127.842,-85.667c-15.012,-8.617 -34,-18.783 -49.775,-25.504c-18.167,-7.7 -38.013,-14.35 -55.508,-23.592c-65.267,-30.987 -118.138,-83.004 -140.521,-152.75c-25.633,-77.767 -18.517,-162.083 -10.767,-241.933c17.392,-155.112 41.167,-311.675 17.783,-466.854c-0.825,-5.646 3.079,-10.892 8.725,-11.721c5.55,-0.813 10.717,2.962 11.679,8.45" style="fill:#111;fill-rule:nonzero;"/><path d="M423.818,352.369l-170.829,105.492l141.067,-105.146l-11.425,-100.488l-94.108,-83.2l121.354,81.396l230.496,-6.788l136.754,-141.204l-124.121,149.65l16.2,66.625l170.679,158.65l-184.954,-147.567l-231.112,22.579Zm742.133,217.767l-31.358,-256.279c-0.783,-6.396 -6,-11.333 -12.429,-11.767l-414.808,-27.85c-3.608,-0.242 -6.637,-2.804 -7.475,-6.325c-1.171,-4.938 2.354,-9.75 7.413,-10.129l249,-18.538c5.167,-0.387 9.65,-3.708 11.521,-8.538l68.283,-176.092c3.279,-8.458 -2.6,-17.671 -11.654,-18.254l-524.829,-33.896c-8.392,-0.542 -15.213,6.679 -14.192,15.029l24.812,203.008l-116.367,-195.321c-2.329,-3.908 -6.479,-6.371 -11.021,-6.546l-366.142,-14.012c-8.387,-0.321 -15.012,7.046 -13.8,15.354l37.621,257.825c1.025,7.017 7.325,12.025 14.392,11.442l241.588,-19.962l-259.167,139.967c-5.175,2.796 -7.929,8.633 -6.796,14.404l75.358,383.717c1.875,9.554 12.979,14 20.929,8.375l442.392,-312.921l-7.696,-116.983l108.992,194.871l481.979,4.479c8.112,0.075 14.438,-7.004 13.454,-15.058" style="fill:#111;fill-rule:nonzero;"/><path d="M559.387,890.017l-56.554,-104.725c-1.908,-3.533 -5.488,-5.9 -9.312,-6.158l-238.425,-16.2c-6.204,-0.425 -10.858,4.721 -9.95,11l5.8,40.188c0.6,4.175 3.567,7.833 7.55,9.317l197.475,73.425c0.3,0.108 0.592,0.233 0.879,0.371l59.067,27.804c3.371,1.583 7.146,1.367 9.979,-0.583l30.879,-21.233c4.075,-2.804 5.188,-8.433 2.612,-13.204" style="fill:#111;fill-rule:nonzero;"/><path d="M1112.378,212.293c0.062,11.4 -9.129,20.688 -20.529,20.75c-11.396,0.058 -20.688,-9.129 -20.746,-20.529c-0.062,-11.4 9.129,-20.688 20.525,-20.75c11.4,-0.058 20.688,9.129 20.75,20.529" style="fill:#111;fill-rule:nonzero;"/><path d="M281.208,1070.898c0.042,8.058 -6.454,14.629 -14.517,14.671c-8.058,0.046 -14.629,-6.454 -14.671,-14.517c-0.042,-8.058 6.454,-14.625 14.517,-14.671c8.058,-0.042 14.629,6.458 14.671,14.517" style="fill:#111;fill-rule:nonzero;"/><path d="M1057.628,152.758c0.042,7.896 -6.321,14.329 -14.217,14.371c-7.892,0.042 -14.325,-6.325 -14.371,-14.217c-0.042,-7.896 6.325,-14.329 14.217,-14.371c7.896,-0.042 14.329,6.321 14.371,14.217" style="fill:#111;fill-rule:nonzero;"/><path d="M1118.205,119.101c0.029,5.7 -4.567,10.342 -10.263,10.375c-5.7,0.029 -10.346,-4.567 -10.375,-10.263c-0.029,-5.7 4.567,-10.346 10.263,-10.375c5.7,-0.033 10.346,4.562 10.375,10.263" style="fill:#111;fill-rule:nonzero;"/><path d="M1170.676,684.257c0.029,5.7 -4.567,10.342 -10.263,10.375c-5.7,0.029 -10.346,-4.567 -10.375,-10.263c-0.029,-5.7 4.567,-10.346 10.263,-10.375c5.7,-0.033 10.346,4.562 10.375,10.263" style="fill:#111;fill-rule:nonzero;"/><path d="M58.696,805.672c0.05,8.983 -7.196,16.308 -16.183,16.354c-8.983,0.05 -16.308,-7.196 -16.354,-16.179c-0.05,-8.988 7.196,-16.308 16.183,-16.358c8.983,-0.046 16.304,7.2 16.354,16.183" style="fill:#111;fill-rule:nonzero;"/><path d="M729.711,1267.328c-31.842,-55.388 -41.146,-135.904 14.788,-179.508c2.342,-2.021 7.242,-5.629 9.837,-7.296c23.413,-16.775 55.679,-17.2 82.263,-15.667c117.071,5.629 323.108,89.208 322.912,-99.242c0.042,-5.721 4.733,-10.325 10.45,-10.254c5.6,0.062 10.108,4.583 10.217,10.146c0.258,14.529 -0.421,29.25 -2.958,43.983c-3.779,22.221 -12.517,45.15 -27.733,62.696c-70.808,78.542 -222.096,28.417 -314.463,27.042c-24.35,-0.358 -48.767,-0.275 -66.575,16.996c-36.796,30.508 -26.567,83.696 -6.65,121.229c1.462,2.767 3.142,5.833 4.408,7.792c14.537,24.692 -21.271,46.483 -36.496,22.083" style="fill:#111;fill-rule:nonzero;"/><path d="M1058.756,936.88l-7.612,-66.975l172.787,-5.087l13.283,54.625l-178.458,17.438Zm187.396,-31.871l133.463,-19.454l-53.767,-195.342l-168.421,100.238l-5.558,54.85l-10.696,-49.5l-184.154,-19.104l1.954,150.383l75.779,-8.875l-46.908,40.867l45.929,77.821l123.392,-64.683l18.708,2.704l63.975,93.025l108.513,-103.333l-102.85,-55.167l0.642,-4.429Z" style="fill:#111;fill-rule:nonzero;"/><path d="M580.474,1147.087l-15.508,-53.329c-0.342,-1.167 -1.571,-1.833 -2.733,-1.479l-84.596,25.679c-0.192,0.058 -0.388,0.088 -0.588,0.092l-264.392,5.933c-1.625,0.037 -2.642,1.763 -1.892,3.2l41.021,78.367c0.283,0.542 0.783,0.942 1.375,1.1l177.962,47.362c0.629,0.167 1.3,0.046 1.829,-0.329l146.688,-104.204c0.758,-0.538 1.092,-1.496 0.833,-2.392" style="fill:#111;fill-rule:nonzero;"/><path d="M919.761,1092.98l24.163,-5.962c0.529,-0.133 0.85,-0.671 0.712,-1.2l-15.808,-49.133c-0.021,-0.088 -0.033,-0.175 -0.029,-0.267l-9.975,-82.558c0.013,-0.725 -0.742,-1.217 -1.396,-0.904l-38.321,-9.779c-0.25,0.121 -0.438,0.333 -0.517,0.596l-10.688,79.871c-0.087,0.279 -0.046,0.579 0.112,0.825l50.688,68.096c0.229,0.35 0.654,0.517 1.058,0.417" style="fill:#111;fill-rule:nonzero;"/></svg>