<?xml version="1.0" encoding="UTF-8" standalone="no"?><!DOCTYPE svg PUBLIC "-//W3C//DTD SVG 1.1//EN" "http://www.w3.org/Graphics/SVG/1.1/DTD/svg11.dtd"><svg width="100%" height="100%" viewBox="0 0 912 487" version="1.1" xmlns="http://www.w3.org/2000/svg" xmlns:xlink="http://www.w3.org/1999/xlink" xml:space="preserve" xmlns:serif="http://www.serif.com/" style="fill-rule:evenodd;clip-rule:evenodd;stroke-linejoin:round;stroke-miterlimit:2;"><rect id="Page-10" serif:id="Page 10" x="0" y="0" width="911.871" height="486.466" style="fill:none;"/><clipPath id="_clip1"><rect x="0" y="0" width="911.871" height="486.466"/></clipPath><g clip-path="url(#_clip1)"><path d="M768.55,428.692c-2.225,0.275 -3.808,2.3 -3.533,4.521l1.35,10.958l-18.542,0.475l22.462,-24.088l-7.617,-4.383l-19.062,-1.492l-3.242,11.071c-0.629,2.15 0.604,4.404 2.758,5.033c2.146,0.633 4.404,-0.604 5.033,-2.754l1.388,-4.746l6.617,0.517l-22.95,24.608l8.65,4.508l33.65,-0.867l-2.438,-19.829c-0.275,-2.229 -2.312,-3.796 -4.525,-3.533" style="fill:#111;fill-rule:nonzero;"/><path d="M828.618,438.159c-2.108,0.767 -3.196,3.092 -2.429,5.2l1.108,3.062l-13.062,0l11.862,-25.171l-7.621,-5.083l-18.375,1.654l3.163,10.267c0.658,2.142 2.938,3.337 5.071,2.683c2.142,-0.658 3.342,-2.929 2.683,-5.071l-0.212,-0.696l4.75,-0.429l-12.179,25.854l6.633,4.108l28.862,0l-5.058,-13.95c-0.763,-2.104 -3.096,-3.188 -5.196,-2.429" style="fill:#111;fill-rule:nonzero;"/><path d="M785.454,443.075l-1.446,-17.017l7.763,1.888l1.029,14.108l-7.346,1.021Zm-10.483,-27.571l3.121,36.787l23.358,-3.25l-2.017,-27.587l-24.462,-5.95Z" style="fill:#111;fill-rule:nonzero;"/><path d="M854.445,438.558l-0.438,7.125l-6.283,-0.242l-3.667,-7.521l10.388,0.637Zm1.029,-12.737c2.054,0.9 4.446,-0.033 5.346,-2.083c0.9,-2.054 -0.033,-4.446 -2.083,-5.346l-18.567,-8.146l-9.175,19.413l11.567,23.704l19.062,0.738l1.417,-23.146l-23.012,-1.413l4.108,-8.692l11.337,4.971Z" style="fill:#111;fill-rule:nonzero;"/><path d="M805.177,128.204c3.779,-0.113 6.754,-3.267 6.642,-7.046c-0.113,-3.783 -3.267,-6.754 -7.046,-6.642c-3.783,0.112 -6.754,3.267 -6.642,7.046c0.112,3.779 3.267,6.754 7.046,6.642" style="fill:#111;fill-rule:nonzero;"/><path d="M817.157,108.125c2.671,-0.079 4.775,-2.308 4.696,-4.983c-0.079,-2.671 -2.308,-4.775 -4.983,-4.696c-2.671,0.079 -4.775,2.312 -4.696,4.983c0.079,2.671 2.312,4.775 4.983,4.696" style="fill:#111;fill-rule:nonzero;"/><path d="M143.231,350.977c-3.779,0.113 -6.754,3.267 -6.642,7.046c0.112,3.779 3.267,6.754 7.046,6.642c3.783,-0.113 6.754,-3.267 6.642,-7.046c-0.113,-3.779 -3.267,-6.754 -7.046,-6.642" style="fill:#111;fill-rule:nonzero;"/><path d="M169.497,330.811c-2.671,0.079 -4.775,2.308 -4.696,4.983c0.079,2.671 2.308,4.775 4.983,4.696c2.671,-0.079 4.775,-2.312 4.696,-4.983c-0.079,-2.671 -2.312,-4.775 -4.983,-4.696" style="fill:#111;fill-rule:nonzero;"/><path d="M188.996,376.345c-4.213,0.125 -7.529,3.642 -7.404,7.858c0.125,4.213 3.642,7.525 7.858,7.4c4.213,-0.121 7.525,-3.642 7.4,-7.854c-0.121,-4.213 -3.642,-7.529 -7.854,-7.404" style="fill:#111;fill-rule:nonzero;"/><path d="M802.989,331.763c-0.079,-2.671 -2.308,-4.775 -4.983,-4.696c-2.671,0.079 -4.775,2.308 -4.696,4.983c0.079,2.671 2.312,4.775 4.983,4.696c2.671,-0.079 4.775,-2.312 4.696,-4.983" style="fill:#111;fill-rule:nonzero;"/><path d="M802.772,395.349c4.212,-0.125 7.529,-3.642 7.404,-7.854c-0.125,-4.217 -3.642,-7.529 -7.858,-7.404c-4.212,0.125 -7.525,3.642 -7.4,7.854c0.121,4.212 3.642,7.529 7.854,7.404" style="fill:#111;fill-rule:nonzero;"/><path d="M775.425,361.589c0.087,3.021 2.613,5.396 5.633,5.308c3.017,-0.092 5.396,-2.613 5.304,-5.633c-0.087,-3.021 -2.608,-5.396 -5.629,-5.308c-3.021,0.092 -5.396,2.613 -5.308,5.633" style="fill:#111;fill-rule:nonzero;"/><path d="M143.92,183.723l3.558,-13.225l42.042,2.262l-2.25,16.263l-43.35,-5.3Zm359.554,-47.133l-16.321,0.346c-3.917,0.071 -20.146,0.417 -37.137,0.783c-17.208,0.367 -35.2,0.75 -41.967,0.883c-1.671,0.033 -3.079,1.021 -3.508,2.454l-28.383,95.212c-0.283,0.95 -1.229,1.312 -2.017,1.333c-0.779,0.025 -1.871,-0.308 -2.238,-1.321l-51.642,-142.604c-0.608,-1.675 -2.483,-2.779 -4.462,-2.579l-82.404,7.546c-2.021,0.183 -3.542,1.583 -3.612,3.325l-7.496,182.242c-2.325,-0.558 -4.646,-1.104 -6.933,-1.625c-20.158,-4.192 -33.296,-12.117 -39.975,-32.329c-0.4,-1.179 -0.717,-2.383 -1.075,-3.579l7.037,-0.846l23.262,-19.121l-6.208,-5.183l-23.7,9.5l-2.212,8.833c-3.046,-13.008 -4.021,-26.525 -4.346,-40.017l24.625,13.683l11.646,-18.679l-11.179,-10.229l18.4,2.608l1.363,-36.604l-44.954,3.562l-2.896,11.988l-1.029,-13.387l-34.904,-21.938c-3.071,1.146 -4.325,1.617 -7.392,2.767l-12.371,41.012l32.383,5.529l0.129,1.083l-25.371,12.821l25.812,25.804l16.129,-22.271l2.608,-0.312c-0.554,11.721 -0.592,23.525 0.571,35.429c0.338,4.254 0.925,8.613 1.796,12.954l-5.987,1.592l-35.992,-0.45l5.392,11.242l23.896,7.262l15.171,-10c4.367,13.8 12.25,26.358 25.529,33.192c9.575,5.188 20.029,7.858 30.142,11.088l-3.3,80.238c-0.042,0.988 0.338,1.925 1.071,2.637c0.867,0.85 2.117,1.283 3.458,1.2l63.533,-4.117c1.212,-0.075 2.333,-0.621 3.079,-1.488c0.633,-0.742 0.938,-1.654 0.854,-2.571l-22.262,-245.008c-0.046,-0.5 0.196,-0.863 0.408,-1.079c0.467,-0.479 1.217,-0.733 2.025,-0.679l13.583,0.908c0.975,0.067 1.837,0.592 2.15,1.308l67.392,155.254c0.879,2.029 4.6,2.004 5.275,1.983c1.137,0.029 27.871,0.796 35.887,-3.067l0.317,-0.154l0.925,-2.321l33.883,-113.212c0.288,-0.7 1.146,-1.121 2.05,-1.038l31.842,3.113c1.079,0.104 1.938,0.917 1.912,1.808l-5.663,208.846c-0.025,0.962 0.35,1.879 1.05,2.575c0.725,0.717 1.742,1.125 2.804,1.125c0.054,0 0.104,0 0.158,-0.004l57.512,-2.183c1.071,-0.038 2.083,-0.508 2.779,-1.287c0.654,-0.733 0.979,-1.663 0.904,-2.617l-17.817,-239.821c-0.137,-1.888 -1.888,-3.308 -3.992,-3.35" style="fill:#111;fill-rule:nonzero;"/><path d="M656.325,139.859c-21.513,1.683 -92.904,7.404 -112.729,8.942c-2.275,0.175 -4.013,2.096 -3.967,4.379l0.258,13.825l4.054,214.792c0.046,2.346 1.95,4.221 4.292,4.233l20.317,0.113c2.337,0.012 4.258,-1.837 4.337,-4.171l3.35,-101.092c0.071,-2.121 1.675,-3.875 3.783,-4.137l50.225,-6.196c2.479,-0.308 4.179,-2.646 3.712,-5.096l-5.975,-31.142c-0.462,-2.425 -2.867,-3.967 -5.267,-3.375l-39.658,9.758c-2.779,0.683 -5.438,-1.475 -5.342,-4.333l1.492,-45.05c0.079,-2.358 2.038,-4.217 4.396,-4.171l74.158,1.462c2.467,0.05 4.471,-1.975 4.396,-4.442l-1.188,-40.125c-0.075,-2.467 -2.188,-4.367 -4.646,-4.175" style="fill:#111;fill-rule:nonzero;"/><path d="M714.692,271.393l56.262,0.85c1,-0.125 1.896,-0.675 2.458,-1.517c0.558,-0.837 0.733,-1.875 0.467,-2.846l-7.642,-28.25c-0.258,-0.958 -0.917,-1.767 -1.808,-2.208c-0.854,-0.425 -1.85,-0.483 -2.746,-0.158l-48.408,7.25c-0.496,0.196 -1.042,0.146 -1.496,-0.133c-0.454,-0.283 -0.742,-0.75 -0.783,-1.283l-4.737,-60.067c-0.038,-0.471 0.121,-0.921 0.442,-1.267c0.321,-0.342 0.75,-0.525 1.217,-0.525l0.017,0l87.583,1.179c0.992,0.083 1.925,-0.396 2.588,-1.113c0.667,-0.721 1.004,-1.692 0.921,-2.667l-2.862,-33.521c-0.083,-0.975 -0.575,-1.875 -1.346,-2.471c-0.767,-0.592 -1.75,-0.838 -2.712,-0.662c-8,1.404 -34.067,5.325 -59.275,9.113c-22.188,3.337 -43.146,6.492 -49.217,7.546c-1.633,0.283 -2.837,1.696 -2.871,3.358l-4.246,218.504c-0.021,0.962 0.346,1.867 1.029,2.542c0.663,0.654 1.525,1.008 2.45,1.008l0.104,0l38.279,-1.138c0.963,-0.025 1.846,-0.438 2.488,-1.15c0.646,-0.717 0.958,-1.642 0.883,-2.604l-8.363,-105.996c-0.067,-0.887 0.567,-1.671 1.325,-1.775" style="fill:#111;fill-rule:nonzero;"/><path d="M174.051,117.621l6.179,-24.629l-10.192,-0.479l0.629,24.733c0.05,2 2.896,2.312 3.383,0.375" style="fill:#111;fill-rule:nonzero;"/><path d="M98.286,204.301l-23.904,8.571l5.275,8.733l20.2,-14.283c1.633,-1.154 0.312,-3.696 -1.571,-3.021" style="fill:#111;fill-rule:nonzero;"/><path d="M92.3,103.712l-6.446,9.175l20.842,13.417c1.683,1.083 3.633,-1.375 2.317,-2.925l-16.712,-19.667Z" style="fill:#111;fill-rule:nonzero;"/><path d="M97.648,434.853c-4.904,-30.146 -61.412,-377.396 -65.908,-405.033l828.15,11.296c7.512,127.413 18.667,302.183 27.987,426.867c-230.404,-10.213 -558.558,-24.438 -790.229,-33.129m798.796,-413.125l-0.571,-17.983l-18.088,-0.017l-861.658,-0.787l-15.267,-0.013l1.975,15.271l56.904,439.529l2.233,17.233c249.067,5.417 592.675,8.175 844.904,11.725c-3.137,-137.046 -5.075,-329.642 -10.433,-464.958" style="fill:#111;fill-rule:nonzero;"/></g></svg>