<?xml version="1.0" encoding="UTF-8" standalone="no"?><!DOCTYPE svg PUBLIC "-//W3C//DTD SVG 1.1//EN" "http://www.w3.org/Graphics/SVG/1.1/DTD/svg11.dtd"><svg width="100%" height="100%" viewBox="0 0 2680 1172" version="1.1" xmlns="http://www.w3.org/2000/svg" xmlns:xlink="http://www.w3.org/1999/xlink" xml:space="preserve" xmlns:serif="http://www.serif.com/" style="fill-rule:evenodd;clip-rule:evenodd;stroke-linejoin:round;stroke-miterlimit:2;"><rect id="Page-9" serif:id="Page 9" x="0" y="0" width="2679.312" height="1171.863" style="fill:none;"/><clipPath id="_clip1"><rect x="0" y="0" width="2679.312" height="1171.863"/></clipPath><g clip-path="url(#_clip1)"><path d="M586.56,649.873l12.217,-27.171c0.358,-0.8 0.938,-1.479 1.667,-1.958l99.837,-65.375c2.404,-1.575 5.646,-0.575 6.746,2.079l9.817,23.675c0.646,1.558 0.383,3.346 -0.683,4.654l-64.45,78.996c-0.929,1.142 -2.35,1.763 -3.817,1.679l-50.887,-2.937c-1.196,-0.067 -2.321,-0.604 -3.129,-1.492l-6.529,-7.188c-1.225,-1.35 -1.538,-3.3 -0.788,-4.962" style="fill:#111;fill-rule:nonzero;"/><path d="M597.911,407.145c11.075,62.987 10.254,127.521 5.438,190.987c-3.358,47.333 -9.429,94.108 -10.329,141.271c-1.104,43.812 4.217,92.929 32.758,126.471c13.879,16.254 32.775,29.142 52.429,37.862c13.875,6.667 30.083,10.992 44.046,17.592c5.538,2.579 16.658,8.171 22.042,11.079c35.562,19.525 69.254,41.475 101.483,66.075c6.488,5.008 12.896,10.254 19.425,16.258c6.921,6.367 7.371,17.142 1,24.062c-6.562,7.175 -17.913,7.333 -24.7,0.388c-10.425,-10.113 -22.837,-19.863 -34.671,-28.879c-24.646,-18.533 -50.529,-36.208 -77.142,-51.696c-9.058,-5.2 -20.517,-11.333 -30.037,-15.388c-10.963,-4.65 -22.938,-8.662 -33.496,-14.237c-39.383,-18.7 -71.287,-50.088 -84.792,-92.171c-15.471,-46.929 -11.175,-97.808 -6.5,-145.992c10.5,-93.596 24.846,-188.071 10.733,-281.708c-0.5,-3.408 1.858,-6.575 5.267,-7.075c3.346,-0.488 6.467,1.788 7.046,5.1" style="fill:#111;fill-rule:nonzero;"/><path d="M511.53,384.99l-103.079,63.658l85.117,-63.45l-6.892,-60.638l-56.787,-50.204l73.229,49.117l139.087,-4.096l82.521,-85.204l-74.9,90.3l9.775,40.204l102.996,95.733l-111.608,-89.046l-139.458,13.625Zm447.821,131.408l-18.925,-154.65c-0.471,-3.858 -3.617,-6.838 -7.496,-7.096l-250.308,-16.808c-2.175,-0.146 -4.004,-1.692 -4.508,-3.817c-0.708,-2.979 1.421,-5.883 4.471,-6.112l150.254,-11.188c3.117,-0.229 5.821,-2.233 6.95,-5.15l41.204,-106.258c1.979,-5.104 -1.567,-10.662 -7.029,-11.012l-316.696,-20.454c-5.067,-0.329 -9.179,4.029 -8.567,9.067l14.975,122.5l-70.221,-117.858c-1.404,-2.358 -3.904,-3.846 -6.65,-3.95l-220.937,-8.458c-5.062,-0.192 -9.058,4.254 -8.325,9.267l22.7,155.579c0.617,4.233 4.421,7.254 8.683,6.904l145.779,-12.046l-156.387,84.458c-3.121,1.688 -4.783,5.208 -4.1,8.692l45.475,231.546c1.129,5.762 7.829,8.446 12.625,5.05l266.954,-188.821l-4.646,-70.592l65.767,117.587l290.842,2.704c4.896,0.046 8.712,-4.225 8.117,-9.083" style="fill:#111;fill-rule:nonzero;"/><path d="M593.335,709.419l-34.125,-63.192c-1.154,-2.133 -3.312,-3.562 -5.621,-3.721l-143.871,-9.775c-3.746,-0.254 -6.55,2.85 -6.004,6.642l3.5,24.25c0.363,2.521 2.154,4.725 4.558,5.621l119.158,44.304c0.179,0.067 0.358,0.142 0.533,0.225l35.642,16.779c2.033,0.954 4.308,0.825 6.021,-0.354l18.629,-12.812c2.462,-1.692 3.133,-5.087 1.579,-7.967" style="fill:#111;fill-rule:nonzero;"/><path d="M2349.534,779.506l-10.367,-1.5l-29.312,-25.308l8.142,-6.475l30.179,12.958l3.712,16.521l-2.354,3.804Z" style="fill:#111;fill-rule:nonzero;"/><path d="M927.023,300.464c0.037,6.879 -5.508,12.483 -12.388,12.521c-6.879,0.038 -12.483,-5.508 -12.521,-12.387c-0.037,-6.879 5.508,-12.483 12.388,-12.521c6.879,-0.038 12.483,5.508 12.521,12.387" style="fill:#111;fill-rule:nonzero;"/><path d="M948.738,608.107c0.025,4.863 -3.896,8.829 -8.758,8.854c-4.862,0.025 -8.829,-3.896 -8.854,-8.758c-0.025,-4.867 3.896,-8.829 8.758,-8.854c4.862,-0.025 8.829,3.896 8.854,8.758" style="fill:#111;fill-rule:nonzero;"/><path d="M425.475,818.567c0.025,4.863 -3.896,8.829 -8.758,8.854c-4.863,0.025 -8.829,-3.896 -8.854,-8.758c-0.025,-4.867 3.896,-8.829 8.758,-8.854c4.863,-0.025 8.829,3.896 8.854,8.758" style="fill:#111;fill-rule:nonzero;"/><path d="M893.986,264.539c0.025,4.762 -3.817,8.646 -8.579,8.671c-4.763,0.025 -8.646,-3.817 -8.671,-8.579c-0.025,-4.763 3.817,-8.646 8.579,-8.671c4.763,-0.025 8.646,3.817 8.671,8.579" style="fill:#111;fill-rule:nonzero;"/><path d="M930.539,244.23c0.017,3.438 -2.754,6.242 -6.192,6.258c-3.442,0.021 -6.242,-2.754 -6.262,-6.192c-0.017,-3.438 2.754,-6.242 6.196,-6.258c3.438,-0.021 6.242,2.754 6.258,6.192" style="fill:#111;fill-rule:nonzero;"/><path d="M962.201,585.258c0.017,3.438 -2.754,6.242 -6.192,6.258c-3.442,0.021 -6.242,-2.754 -6.262,-6.192c-0.017,-3.438 2.754,-6.242 6.196,-6.258c3.438,-0.021 6.242,2.754 6.258,6.192" style="fill:#111;fill-rule:nonzero;"/><path d="M291.206,658.523c0.029,5.421 -4.342,9.842 -9.767,9.871c-5.421,0.029 -9.837,-4.346 -9.867,-9.767c-0.029,-5.421 4.342,-9.842 9.762,-9.871c5.425,-0.025 9.842,4.346 9.871,9.767" style="fill:#111;fill-rule:nonzero;"/><path d="M924.601,562.101c0.013,2.171 -1.737,3.938 -3.908,3.95c-2.171,0.013 -3.938,-1.737 -3.95,-3.908c-0.012,-2.171 1.738,-3.938 3.908,-3.95c2.171,-0.012 3.938,1.738 3.95,3.908" style="fill:#111;fill-rule:nonzero;"/><path d="M696.113,937.098c-19.212,-33.425 -24.829,-82.008 8.921,-108.321c1.417,-1.221 4.371,-3.396 5.938,-4.4c14.129,-10.121 33.6,-10.379 49.642,-9.458c70.642,3.4 194.971,53.833 194.85,-59.879c0.025,-3.454 2.858,-6.233 6.308,-6.192c3.379,0.038 6.1,2.767 6.162,6.125c0.158,8.767 -0.254,17.65 -1.783,26.538c-2.279,13.412 -7.55,27.246 -16.737,37.837c-42.725,47.392 -134.017,17.146 -189.754,16.312c-14.692,-0.212 -29.425,-0.167 -40.171,10.258c-22.204,18.408 -16.033,50.504 -4.013,73.15c0.883,1.671 1.896,3.521 2.663,4.704c8.771,14.9 -12.837,28.046 -22.025,13.325" style="fill:#111;fill-rule:nonzero;"/><path d="M2242.039,841.489c15.967,-9.821 34.733,-13.742 52.246,-17.288c26.054,-4.767 43.192,-14.546 52.408,-40.321c8.671,-23.692 10.412,-49.4 11.312,-74.737c0.058,-2.329 1.996,-4.175 4.329,-4.117c2.238,0.054 4.025,1.871 4.117,4.075c0.621,17.425 0.529,34.979 -1.633,52.65c-2.821,27.304 -13.492,57.933 -40.058,70.8c-23.142,11.817 -49.917,12.379 -70.875,27.263c-12.488,8.071 -24.387,-10.179 -11.846,-18.325" style="fill:#111;fill-rule:nonzero;"/><path d="M894.666,737.698l-4.596,-40.417l104.267,-3.067l8.017,32.962l-107.688,10.521Zm113.079,-19.233l80.533,-11.737l-32.442,-117.875l-101.629,60.487l-3.354,33.096l-6.454,-29.867l-111.125,-11.529l1.179,90.746l45.725,-5.358l-28.304,24.663l27.717,46.958l74.458,-39.033l11.288,1.633l38.604,56.133l65.479,-62.354l-62.062,-33.288l0.388,-2.675Z" style="fill:#111;fill-rule:nonzero;"/><path d="M2333.316,704.781l-2.387,-20.979l54.129,-1.596l4.162,17.112l-55.904,5.462Zm58.7,-9.983l41.812,-6.096l-14.621,-53.117c-3.913,-1.575 -5.513,-2.217 -9.421,-3.792l-45.562,27.117l-1.742,17.183l-3.35,-15.504l-57.688,-5.987l0.613,47.108l23.737,-2.779l-14.692,12.8l14.388,24.379l38.65,-20.263l5.863,0.846l20.042,29.142l33.992,-32.371l-32.221,-17.279l0.2,-1.387Z" style="fill:#111;fill-rule:nonzero;"/><path d="M606.06,864.542l-9.358,-32.179c-0.204,-0.704 -0.946,-1.108 -1.65,-0.896l-51.046,15.496c-0.117,0.038 -0.233,0.054 -0.354,0.058l-159.542,3.579c-0.979,0.021 -1.592,1.062 -1.142,1.929l24.754,47.292c0.171,0.325 0.471,0.567 0.829,0.663l107.387,28.579c0.379,0.1 0.783,0.029 1.104,-0.2l88.512,-62.875c0.458,-0.325 0.663,-0.908 0.504,-1.446" style="fill:#111;fill-rule:nonzero;"/><path d="M810.794,831.892l14.579,-3.6c0.321,-0.079 0.513,-0.404 0.433,-0.721l-9.542,-29.65c-0.012,-0.05 -0.021,-0.104 -0.017,-0.158l-6.021,-49.821c0.008,-0.438 -0.446,-0.733 -0.842,-0.546l-23.125,-5.9c-0.15,0.071 -0.263,0.204 -0.312,0.362l-6.446,48.192c-0.054,0.171 -0.029,0.354 0.067,0.5l30.587,41.092c0.138,0.208 0.392,0.312 0.638,0.25" style="fill:#111;fill-rule:nonzero;"/><path d="M847.814,843.837l5.017,-6.054c0.108,-0.133 0.308,-0.154 0.438,-0.042l11.808,11.25c0.025,0.017 0.046,0.033 0.071,0.046l22.125,14.179c0.208,0.096 0.242,0.375 0.067,0.521l-2.483,12.246c-0.067,0.054 -0.154,0.079 -0.242,0.067l-24.196,-7.929c-0.087,-0.017 -0.171,-0.071 -0.217,-0.15l-12.413,-23.775c-0.071,-0.113 -0.058,-0.258 0.025,-0.358" style="fill:#111;fill-rule:nonzero;"/><path d="M2417.799,875.413c0.017,3.438 -2.754,6.242 -6.192,6.258c-3.442,0.021 -6.242,-2.754 -6.262,-6.192c-0.017,-3.438 2.754,-6.242 6.196,-6.258c3.438,-0.021 6.242,2.754 6.258,6.192" style="fill:#111;fill-rule:nonzero;"/><path d="M2425.298,947.291c0.029,5.421 -4.342,9.842 -9.767,9.871c-5.421,0.029 -9.838,-4.346 -9.867,-9.767c-0.029,-5.421 4.342,-9.842 9.762,-9.871c5.425,-0.025 9.842,4.346 9.871,9.767" style="fill:#111;fill-rule:nonzero;"/><path d="M2395.502,912.824c0.021,3.888 -3.113,7.054 -7,7.075c-3.887,0.021 -7.054,-3.112 -7.075,-7c-0.021,-3.888 3.112,-7.054 7,-7.075c3.887,-0.021 7.054,3.113 7.075,7" style="fill:#111;fill-rule:nonzero;"/><path d="M2351.946,786.042l2.75,-9.854l15.062,4.396l46.287,0.542l-7.283,14.288l-30.95,8.592l-25.867,-17.962Z" style="fill:#111;fill-rule:nonzero;"/><path d="M1159.221,118.452c6.579,0.6 10.204,0.933 17.438,1.592c1.683,0.154 3.158,1.133 3.7,2.475l75.75,186.8l6.05,14.912c0.821,2.033 5.7,1.988 5.7,1.988c0,0 35.408,1.938 45.688,-2.721l1.05,-2.433l47.142,-144.608c0.592,-1.367 2.179,-2.167 3.879,-1.962l40.842,4.992c2,0.246 3.517,1.842 3.425,3.608l-13.8,268.333c-0.104,2.021 1.65,3.683 3.858,3.654l74.012,-1.012c2.125,-0.025 3.808,-1.7 3.708,-3.675l-14.383,-288.158l-1.033,-20.737c-0.092,-1.812 -1.842,-3.317 -3.867,-3.321l-20.996,-0.071c-10.15,-0.058 -84.458,-0.242 -101.758,-0.325c-1.642,-0.008 -3.029,0.892 -3.467,2.238l-2.858,8.8l-36.612,112.733c-1.083,3.333 -6.558,3.258 -7.688,-0.108l-56.325,-168.188l-5.621,-16.775c-0.554,-1.654 -2.458,-2.796 -4.471,-2.662c-27.042,1.821 -78.087,5.238 -106.179,7.129c-2.021,0.133 -3.554,1.425 -3.663,3.075l-0.837,12.796l-22.537,344.092c-0.142,2.188 1.904,3.933 4.492,3.829l81.817,-3.304c2.342,-0.096 4.2,-1.842 4.067,-3.85c-2.196,-33 -18.037,-271.425 -20.979,-315.708c-0.138,-2.067 1.958,-3.654 4.458,-3.425" style="fill:#111;fill-rule:nonzero;"/><path d="M1646.387,413.719l-79.108,-10.392c-1.608,-0.213 -2.825,-1.558 -2.875,-3.179l-6.021,-193.037c-0.067,-2.196 1.996,-3.838 4.125,-3.3c24.938,6.292 48.967,11.55 74.242,14.763c1.612,0.204 2.838,1.55 2.879,3.179c1.538,63.275 5.221,125.146 10.479,188.408c0.175,2.1 -1.629,3.833 -3.721,3.558m41.329,34.646c-0.171,-86.804 -2.425,-175.35 -7.783,-262.575c-0.096,-1.583 -1.3,-2.883 -2.875,-3.096c-43.246,-5.837 -88.221,-8.771 -130.758,-9.467l-10.842,-0.217c-1.758,-0.033 -3.237,1.312 -3.367,3.067l-0.704,9.625l-17.417,238.646l-1.579,21.621c-0.138,1.904 1.354,3.525 3.258,3.55l22.062,0.283c10.479,0.138 124.737,1.596 146.654,1.879c1.85,0.025 3.354,-1.467 3.35,-3.317" style="fill:#111;fill-rule:nonzero;"/><path d="M1438.504,625.866l88.85,-14.004c1.913,-0.304 3.35,0.767 3.383,2.533l4.971,246.513c0.067,3.296 -2.867,6.179 -5.854,5.788c-34.767,2.458 -67.438,-1.946 -97.175,-7.183c-1.983,0.017 -3.371,-1.638 -3.258,-3.9c4.108,-83.579 5.3,-157.079 4.817,-224.904c-0.013,-2.142 2.054,-4.492 4.267,-4.842m-39.604,-22.458c-9.129,90.137 -17.337,193.733 -22.842,310.046c-0.108,2.275 1.154,3.979 3.021,4.058c53.225,2.163 113.054,-0.317 173.837,-6.183l16.167,-1.5c2.65,-0.246 4.854,-2.687 5.013,-5.546l0.854,-15.546l-1.346,-320.846c0.112,-2.046 -1.779,-3.183 -4.129,-2.496c0,0 -144.725,27.254 -166.896,33.754c-1.846,0.538 -3.496,2.45 -3.679,4.258" style="fill:#111;fill-rule:nonzero;"/><path d="M1795.479,437.148l-21.592,-129.825c-0.642,-3.858 4.767,-5.442 6.304,-1.842l61.525,143.996l3.471,8.125c0.496,1.163 1.608,1.942 2.871,2.008l9.054,0.475c9.9,0.525 29.779,1.567 41.575,2.192c1.946,0.104 3.546,-1.496 3.467,-3.446l-0.675,-15.975l-10.854,-257.096c-0.079,-1.867 -1.688,-3.296 -3.554,-3.158l-46.938,3.492c-1.875,0.137 -3.254,1.808 -3.046,3.671l22.054,194.121c0.429,3.787 -4.833,5.179 -6.333,1.675l-83.446,-195.317l-3.096,-7.246c-0.454,-1.062 -1.429,-1.808 -2.575,-1.975l-9.725,-1.392c-8.337,-1.179 -24.279,-3.483 -34.583,-4.954c-2.062,-0.292 -3.879,1.354 -3.771,3.433c1.654,31.237 12.379,235.758 13.983,265.954c0.104,1.887 1.767,3.296 3.65,3.1l59.312,-6.183c1.896,-0.196 3.233,-1.954 2.921,-3.833" style="fill:#111;fill-rule:nonzero;"/><path d="M1974.842,201.949c17.021,0.125 36.742,0.271 52.571,0.388c1.763,0.012 3.183,1.404 3.258,3.167l4.621,107.033c0.096,2.25 -2.033,3.937 -4.2,3.329l-42.971,-12.067c-1.254,-0.35 -2.188,-1.408 -2.379,-2.696l-14.183,-95.358c-0.3,-2.008 1.254,-3.812 3.283,-3.796m152.621,178.321l-126.425,4.442c-1.642,0 -3.033,-1.2 -3.275,-2.821l-6.138,-41.254c-0.317,-2.142 1.475,-4.008 3.629,-3.775l49.808,5.408l9.208,1c1.921,0.208 3.567,-1.175 3.658,-3.108c1.317,-27.679 6.675,-141.887 7.971,-169.1c0.092,-1.912 -1.433,-3.479 -3.346,-3.446c-27.367,0.496 -97.571,1.763 -124.971,2.258c-1.913,0.033 -3.379,1.654 -3.217,3.562c3.021,35.679 18.712,220.933 21.608,255.146c0.15,1.779 1.671,3.092 3.45,3.004c27.454,-1.354 140.992,-15.187 168.942,-16.575c1.796,-0.088 3.167,-1.592 3.121,-3.387l-0.717,-28.129c-0.046,-1.796 -1.513,-3.225 -3.308,-3.225" style="fill:#111;fill-rule:nonzero;"/><path d="M2148.209,305.436c9.213,0.458 48.246,2.396 72.646,3.608c1.796,0.087 3.192,1.596 3.142,3.392l-3.912,144.371c-0.046,1.804 -1.533,3.237 -3.342,3.217l-184.579,-1.983c-1.867,-0.021 -3.379,1.504 -3.346,3.371l0.508,27.779c0.033,1.862 1.6,3.329 3.462,3.242l198.925,-9.162l7.521,-0.346c1.612,-0.075 2.933,-1.296 3.133,-2.896l0.929,-7.454l32.512,-260.05c0.233,-1.883 -1.154,-3.575 -3.046,-3.713l-42.421,-3.054c-1.879,-0.137 -3.492,1.325 -3.542,3.208l-1.771,65.321c-0.046,1.646 -1.296,3.012 -2.933,3.196l-57.783,6.583c-1.646,0.188 -3.179,-0.867 -3.583,-2.475l-23.896,-94.371c-0.467,-1.838 -2.371,-2.908 -4.183,-2.35l-27.05,8.338c-1.842,0.571 -2.812,2.592 -2.1,4.383l40.058,101.008c0,0 1.142,2.883 1.933,4.879c0.45,1.133 1.496,1.896 2.717,1.958" style="fill:#111;fill-rule:nonzero;"/><path d="M1192.247,495.997l-0.162,-30.792c-0.013,-1.887 -1.6,-3.387 -3.488,-3.283c-16.525,0.887 -71.375,3.946 -86.6,4.754c-1.75,0.092 -3.117,1.533 -3.129,3.287l-0.054,10.6l-0.896,164.779c-0.008,1.796 1.417,3.271 3.213,3.325l15.579,0.463c1.792,0.054 3.296,-1.329 3.4,-3.117l4.454,-77.45c0.092,-1.629 1.358,-2.946 2.979,-3.104l38.625,-3.817c1.904,-0.188 3.254,-1.95 2.942,-3.837l-4,-23.992c-0.312,-1.867 -2.125,-3.096 -3.975,-2.688l-30.596,6.746c-2.142,0.475 -4.142,-1.229 -4.013,-3.421l1.983,-34.517c0.104,-1.808 1.642,-3.196 3.45,-3.117l56.833,2.504c1.888,0.083 3.463,-1.433 3.454,-3.325" style="fill:#111;fill-rule:nonzero;"/><path d="M1221.659,588.102c0.521,-22.604 1.875,-77.788 2.263,-94.554c0.046,-2.125 1.55,-3.762 3.312,-3.642l43.142,12.071c1.587,0.113 2.829,1.654 2.883,3.567c0.771,26.625 2.338,52.708 4.321,79.608c0.158,2.163 -1.254,4.062 -3.062,4.108c-16.833,0.421 -33.092,1.137 -49.554,2.596c-1.821,0.163 -3.354,-1.554 -3.304,-3.754m75.188,-110.75c-0.046,-2.133 -1.546,-3.767 -3.312,-3.6c-14.838,1.396 -69.279,-2.621 -76.671,-1.879l-4.013,0.371c-1.483,0.138 -2.688,1.525 -2.871,3.304l-0.458,4.421c-0.912,8.817 -11.367,116.175 -13.742,139.113c-0.242,2.362 1.375,4.371 3.342,4.154c31.304,-3.471 63.438,-8.529 94.283,-14.779c1.467,-0.296 2.562,-1.796 2.621,-3.587c1.367,-42.021 1.763,-85.329 0.821,-127.517" style="fill:#111;fill-rule:nonzero;"/><path d="M1359.609,478.668l-0.208,-4.096c-0.088,-1.729 -1.492,-3.096 -3.225,-3.137l-19.617,-0.479c-1.737,-0.042 -3.208,1.267 -3.375,2.992l-10.404,110.012c-0.183,1.913 1.292,3.579 3.213,3.625l32.858,0.796c1.925,0.046 3.483,-1.554 3.388,-3.475l-0.871,-71.6c-0.058,-1.1 0.438,-2.154 1.317,-2.812l24.808,-18.6c1.346,-1.008 3.229,-0.85 4.388,0.367c0.583,0.617 0.908,1.433 0.908,2.283l-0.042,30.821c-0.004,1.825 1.471,3.308 3.296,3.317l19.158,0.075c1.833,0.008 3.321,-1.475 3.325,-3.304c0.017,-9.608 0.021,-34.45 0.046,-42.133c0.004,-1.221 -0.663,-2.337 -1.733,-2.917c-6.85,-3.688 -17.871,-9.638 -24.663,-13.296c-1.013,-0.546 -2.229,-0.529 -3.225,0.054c-3.925,2.287 -14.25,8.304 -24.371,14.2c-2.146,1.25 -4.846,-0.217 -4.971,-2.692" style="fill:#111;fill-rule:nonzero;"/><path d="M1211.747,793.971l-62.325,7.754c-2.092,0.783 -4.342,-0.692 -4.467,-2.921l-4.212,-77.375c-0.108,-1.942 1.475,-3.554 3.421,-3.488l112.567,4.254c1.95,0.067 3.537,-1.558 3.417,-3.508l-2.633,-43.188c-0.117,-1.942 -1.854,-3.362 -3.775,-3.075c-19.525,2.946 -123.367,15.554 -140.012,18.029c-1.567,0.233 -2.733,1.546 -2.8,3.125l-0.421,9.562l-11.862,271.242c-0.083,1.887 1.429,3.462 3.321,3.454l49.254,-0.263c1.892,-0.013 3.392,-1.604 3.288,-3.492l-7.438,-136.546c-0.096,-1.762 1.212,-3.292 2.971,-3.471l72.146,2.858c2,-0.204 3.358,-2.125 2.879,-4.079l-8.942,-36.562c-0.471,-1.925 -2.517,-3.008 -4.375,-2.312" style="fill:#111;fill-rule:nonzero;"/><path d="M1349.396,646.123l-58.037,-7.096c-1.812,-0.212 -3.458,1.087 -3.671,2.904l-10.708,320.029l-1.154,15.892c-0.142,1.925 1.387,3.562 3.317,3.55l15.525,-0.083l486.888,9.187c2.142,-0.075 3.646,-2.133 3.071,-4.196l-10.921,-45.642c-0.429,-1.546 -1.908,-2.558 -3.504,-2.404l-438.429,12.546c-2.204,0.212 -3.987,-1.758 -3.562,-3.929l24.05,-296.837c0.371,-1.892 -0.95,-3.696 -2.862,-3.921" style="fill:#111;fill-rule:nonzero;"/><path d="M1786.478,523.547l-38.483,1.767c-1.829,0.083 -3.246,1.642 -3.154,3.471l13.771,342.937c-1.542,-0.058 -1.838,-0.071 -3.233,-0.125l-26.296,-184.629l-2.992,-18.188c-0.308,-1.883 -2.142,-3.117 -4,-2.692l-22.6,5.162c-0.121,0.029 -0.221,0.054 -0.338,0.096c-3.367,1.179 -14.212,5.008 -19.646,6.921c-1.317,0.463 -2.188,1.7 -2.192,3.1l-0.042,9.192l-19.9,162.671c-0.062,1.529 -1.167,2.821 -2.671,3.113l-1.996,0.392l-2.392,-316.167c-0.05,-1.879 -1.65,-3.337 -3.525,-3.212l-54.462,3.537c-1.879,0.121 -3.279,1.783 -3.075,3.658l38.579,327.771l0.754,6.925c0.158,1.454 1.233,2.629 2.671,2.892c10.554,1.95 38.058,7.038 45.821,8.471l15.967,2.95c2.046,0.379 3.933,-1.204 3.908,-3.287l-0.2,-19.029l9.05,-61.304c-0.017,-4.171 6.112,-4.542 6.596,-0.4l10.279,81.467c0.008,0.067 0.017,0.129 0.029,0.188l1.625,9.25c0.233,1.333 1.233,2.383 2.558,2.663c20.346,4.262 51.45,10.796 72.429,15.192c2.117,0.442 4.067,-1.233 3.971,-3.392l-1.021,-22.596l-12.333,-365.604c-0.083,-1.829 -1.633,-3.242 -3.458,-3.158" style="fill:#111;fill-rule:nonzero;"/><path d="M1863.072,691.76l40.046,1.521c1.925,0.075 3.504,-1.508 3.433,-3.433l-1.379,-35.475c-0.071,-1.921 -1.762,-3.375 -3.675,-3.158l-42.171,4.758c-1.842,0.204 -3.492,-1.138 -3.667,-2.979l-10.021,-106.383c-0.188,-1.996 1.429,-3.7 3.429,-3.617l76.229,3.112c1.858,0.075 3.413,-1.396 3.442,-3.254l0.442,-27.8c0.029,-1.862 -1.463,-3.379 -3.325,-3.363c-18.517,0.204 -91.842,1.046 -109.608,1.237c-1.892,0.021 -3.371,1.617 -3.258,3.504l0.729,12.142l27.654,459.9l1.121,18.625c0.112,1.854 1.708,3.254 3.562,3.1c17.342,-1.462 64.733,-6.771 82.767,-8.246c1.725,-0.142 3.046,-1.592 3.037,-3.321l-0.15,-28.263c-0.008,-1.8 -1.429,-3.262 -3.229,-3.292c-6.675,-0.117 -22.904,-0.467 -40.513,-1.338c-1.642,-0.083 -2.979,-1.362 -3.133,-2.996l-25.183,-267.367c-0.188,-1.992 1.421,-3.692 3.421,-3.617" style="fill:#111;fill-rule:nonzero;"/><path d="M1984.137,550.15l40.554,8.892c1.3,0.283 2.3,1.312 2.546,2.621l15.538,82.658c0.371,1.983 -1.1,3.833 -3.117,3.917l-49.054,2.033c-1.783,0.071 -3.304,-1.279 -3.438,-3.058l-7.038,-93.583c-0.167,-2.208 1.846,-3.954 4.008,-3.479m75.825,122.238l8.683,-1.354c1.613,-0.25 2.804,-1.617 2.8,-3.25c-0.013,-27.113 -0.108,-120.25 -0.121,-147.583c0,-1.833 -1.467,-3.312 -3.296,-3.308c-19.925,0.079 -87.792,0.271 -102.533,0.342l-12.958,0.042c-1.846,0.008 -3.329,1.521 -3.3,3.367l0.196,11.3l7.875,462.521c0.033,1.862 1.596,3.333 3.454,3.25l49.179,-2.171c1.867,-0.083 3.296,-1.692 3.154,-3.554l-22.983,-305.642c-0.133,-1.721 1.083,-3.254 2.788,-3.517l11.204,-1.746c1.825,-0.283 3.525,0.979 3.783,2.808l45.233,320.296c0.267,1.879 2.054,3.15 3.913,2.787l52.867,-10.35c1.888,-0.367 3.062,-2.258 2.558,-4.113l-84.312,-311.454c-0.517,-1.904 0.738,-3.833 2.683,-4.133l29.133,-4.538Z" style="fill:#111;fill-rule:nonzero;"/><path d="M2233.856,689.662c-0.879,-0.487 -1.929,-0.55 -2.863,-0.171l-4.587,1.879l-70.975,29.058c-1.908,0.779 -4.058,-0.354 -4.492,-2.371c-1.113,-5.175 -2.079,-9.683 -2.079,-9.683l2.129,8.129l-0.871,-162.217l-0.854,5.408c0,0 0.617,-5.175 1.333,-11.142c0.246,-2.029 2.25,-3.363 4.213,-2.788l67.021,19.554c1.575,0.458 2.579,2.008 2.35,3.633l-11.583,83.058c-0.271,1.946 1.192,3.696 3.154,3.763c10.212,0.354 38.954,1.342 49.179,1.696c1.963,0.067 3.542,-1.562 3.404,-3.521c-1.317,-19.004 -6.188,-96.517 -7.325,-112.079c-0.108,-1.504 -1.2,-2.738 -2.679,-3.013c-19.771,-3.679 -101.762,-19.037 -121.463,-22.696c-1.383,-0.254 -2.762,0.367 -3.462,1.583c-4.642,8.083 -14.163,24.967 -18.308,32.104c-0.296,0.513 -0.438,1.071 -0.433,1.663l0.017,2.967l0.867,162.212c0,0 0.017,2.925 0.025,4.717c0.004,0.883 0.358,1.717 0.988,2.338c3.821,3.75 17.383,16.942 18.15,17.75l5.392,5.279c0.821,0.804 2,1.125 3.113,0.846l4.492,-1.117l75.917,-18.846l0.188,0.346l-5.863,244.754c-0.012,0.421 -0.104,0.837 -0.271,1.225l-0.5,1.175c-0.429,0.992 -1.312,1.717 -2.371,1.933l-34.688,7.175c-0.688,0.142 -1.404,0.062 -2.042,-0.229l-4.308,-1.962c-0.992,-0.45 -1.696,-1.362 -1.887,-2.433l-33.158,-186.483c-0.312,-1.754 -1.95,-2.946 -3.713,-2.7l-24.117,3.342c-1.779,0.246 -3.033,1.863 -2.833,3.646l22.679,201.271l1.513,13.454c0.175,1.537 1.367,2.75 2.904,2.917c9.967,1.092 29.1,3.183 37.35,4.087l6.396,0.7l2.075,-0.429c5.779,-1.192 49.362,-10.208 59.362,-12.275c1.058,-0.217 1.925,-0.938 2.35,-1.929l2.908,-6.779l6.308,-14.708l1.104,-2.567l0.25,-3.263l19.562,-252.604l0.875,-11.312c0.1,-1.288 -0.554,-2.517 -1.683,-3.142c-6.808,-3.792 -22.279,-12.362 -27.292,-15.167l-10.867,-6.038Z" style="fill:#111;fill-rule:nonzero;"/><path d="M2352.544,613.39l-7.175,-31.858l13.121,-0.296l-1.583,31.779c-0.129,2.567 -3.796,2.883 -4.363,0.375" style="fill:#111;fill-rule:nonzero;"/><path d="M103.712,124.433l-102.854,-56.083l30.258,-36.054l81.912,79.492c6.617,6.421 -1.217,17.063 -9.317,12.646" style="fill:#111;fill-rule:nonzero;"/><path d="M2567.558,1030.795l88.608,-76.633l23.146,40.988l-103.179,48.808c-8.338,3.942 -15.554,-7.129 -8.575,-13.162" style="fill:#111;fill-rule:nonzero;"/><path d="M2596.028,1102.121l60.742,49.771l-24.429,19.971l-44.025,-62.575c-3.558,-5.058 2.929,-11.088 7.713,-7.167" style="fill:#111;fill-rule:nonzero;"/><path d="M162.966,91.587l-20.35,-86.958c-0.3,-1.279 0.738,-2.479 2.05,-2.367l22.817,1.933c2.196,2.492 3.475,3.942 5.671,6.433l-3.325,80.308c-0.167,4.046 -5.942,4.592 -6.863,0.65" style="fill:#111;fill-rule:nonzero;"/><path d="M2441.204,697.521l31.363,-9.108l1.096,13.079l-31.817,0.362c-2.571,0.029 -3.113,-3.617 -0.642,-4.333" style="fill:#111;fill-rule:nonzero;"/><path d="M2279.19,685.869l-32.142,-5.796l4.838,-12.2l28.658,13.829c2.312,1.121 1.175,4.621 -1.354,4.167" style="fill:#111;fill-rule:nonzero;"/><path d="M189.644,985.576l15.192,-866.237l857.717,28.325l8.662,0.283l1.021,-9.171l10.287,-92.604l1291.662,67.196c47.704,320.175 97.629,636.496 150.983,955.321c-779.442,-30.317 -1555.762,-58.267 -2335.525,-83.112m2208.021,-898.254l-10.925,-0.596l-1317.083,-72.092l-16.208,-0.887l-61.658,45.946c-1.421,-0.075 -2.637,1.017 -2.717,2.437l-3.579,64.613l-787.175,-21.321l-6.779,-0.183l-70.458,36.633c-1.425,-0.042 -2.617,1.083 -2.658,2.508l-25.042,884.067c-0.042,1.421 1.071,2.604 2.492,2.654l2367.642,88.129l90.037,-21.758c1.438,0.046 2.875,0.088 4.308,0.133c-50.267,-336.433 -104.058,-675.317 -160.196,-1010.283" style="fill:#111;fill-rule:nonzero;"/><path d="M2325.793,1039.035l-10.979,-6.062l30.271,-30.925l-8.487,-0.871l-1.933,6.058c-0.875,2.746 -3.817,4.267 -6.558,3.383c-2.746,-0.875 -4.262,-3.812 -3.387,-6.558l4.512,-14.133l24.463,2.513l9.658,5.875l-29.638,30.271l23.858,-0.033l-1.396,-14.129c-0.279,-2.867 1.817,-5.421 4.683,-5.704c2.854,-0.271 5.425,1.812 5.708,4.683l2.517,25.575l-43.292,0.058Z" style="fill:#111;fill-rule:nonzero;"/><path d="M2450.472,1044.146l-37.108,-0.9l-8.404,-5.492l16.467,-32.858l-6.121,0.404l0.254,0.896c0.779,2.775 -0.838,5.658 -3.613,6.442c-2.762,0.775 -5.654,-0.838 -6.433,-3.613l-3.746,-13.296l23.679,-1.558l9.633,6.779l-16.033,31.992l16.796,0.408l-1.333,-3.975c-0.917,-2.733 0.554,-5.692 3.287,-6.608c2.725,-0.913 5.688,0.558 6.608,3.288l6.067,18.092Z" style="fill:#111;fill-rule:nonzero;"/><path d="M2380.82,1005.813l1.325,21.925l9.479,-1.083l-0.888,-18.171l-9.917,-2.671Zm-8.429,33.546l-2.862,-47.396l31.267,8.417l1.729,35.533l-30.133,3.446Z" style="fill:#111;fill-rule:nonzero;"/><path d="M2462.136,1032.725l8.067,0.508l0.787,-9.146l-13.333,-1.146l4.479,9.783Zm17.6,11.567l-24.487,-1.542l-14.129,-30.842l12.4,-24.671l23.617,11.05c2.608,1.225 3.738,4.329 2.517,6.942c-1.221,2.613 -4.329,3.738 -6.942,2.513l-14.421,-6.746l-5.554,11.05l29.542,2.529l-2.542,29.717Z" style="fill:#111;fill-rule:nonzero;"/><path d="M2386.546,1129.728c26.812,-2.721 54.925,-2.671 81.908,-2.167l-1.6,0.279c12.321,-4.683 24.679,-9.271 37.213,-13.412c12.512,-4.188 25.125,-8.112 38.033,-11.283c-23.621,12.392 -48.842,23.888 -73.846,32.725c-26.992,-0.812 -55.038,-2.117 -81.708,-6.142" style="fill:#111;fill-rule:nonzero;"/><path d="M2429.551,1145.953l42.804,-3.129l-1.604,0.279l40.992,-11.412l-37.983,19.183l-0.758,0.383l-0.85,-0.1l-42.6,-5.204Z" style="fill:#111;fill-rule:nonzero;"/><path d="M2414.906,132.716c-5.583,-17.367 -9.488,-35.079 -13.046,-52.912l3.475,3.287c-28.938,-2.837 -57.863,-6.479 -86.092,-13.712c29.129,-0.763 58.137,2.125 86.983,5.804l3.058,0.367c2.717,18.971 5.117,37.95 5.621,57.167" style="fill:#111;fill-rule:nonzero;"/><path d="M1023.051,20.711c-11.583,14.333 -25.163,26.854 -39.062,38.858l1.45,-3.054c-0.296,8.754 -0.704,17.504 -1.583,26.242c-0.829,8.742 -1.933,17.475 -3.846,26.192c-1.483,-8.8 -2.163,-17.575 -2.567,-26.346c-0.483,-9.388 -0.429,-18.758 -0.279,-28.133c14.467,-12.304 29.387,-24.225 45.887,-33.758" style="fill:#111;fill-rule:nonzero;"/><path d="M84.712,967.305c1.162,24.908 0.021,49.821 -1.717,74.658l-4.171,-4.433c28.283,-0.558 56.629,-0.371 84.796,2.65c-28.046,3.992 -56.371,5.158 -84.654,5.579l-4.583,-0.013c2.288,-26.279 4.987,-52.571 10.329,-78.442" style="fill:#111;fill-rule:nonzero;"/><path d="M70.255,1004.371c2.433,16.108 1.804,32.108 0.346,48.192l-3.992,-4.421c12.262,0.675 24.408,1.821 36.387,4.987c-13.5,2.875 -27.146,3.246 -40.837,3.217c0.983,-17.587 2.75,-35.033 8.096,-51.975" style="fill:#111;fill-rule:nonzero;"/><path d="M106.191,170.158c4.296,58.296 2.917,116.987 -4.25,175c-4.342,-58.292 -2.871,-116.983 4.25,-175" style="fill:#111;fill-rule:nonzero;"/><path d="M1828.929,1105.113c-58.296,4.296 -116.987,2.917 -175.004,-4.25c58.296,-4.342 116.983,-2.871 175.004,4.25" style="fill:#111;fill-rule:nonzero;"/><path d="M1788.776,1118.308c-28.817,5.013 -58.542,4.338 -87.079,-2.117c28.812,-5.054 58.537,-4.288 87.079,2.117" style="fill:#111;fill-rule:nonzero;"/><path d="M87.89,205.19c5.054,27.05 4.417,55.071 -1.987,81.837c-5.1,-27.046 -4.375,-55.062 1.987,-81.837" style="fill:#111;fill-rule:nonzero;"/><path d="M987.455,34.226c-3.604,6.75 -8.533,12.221 -13.992,17.342l1.417,-2.758c-0.583,9.913 -2.104,19.533 -6.571,28.671c-3.008,-10.354 -2.692,-20.742 -1.346,-31.192c6.25,-4.987 12.783,-9.383 20.492,-12.062" style="fill:#111;fill-rule:nonzero;"/><path d="M2426.634,109.244c-6.3,-12.912 -10.554,-26.662 -14.271,-40.475l3.713,3.129c-8.475,-0.475 -16.925,-1.371 -25.354,-2.533c-8.421,-1.238 -16.825,-2.75 -25.158,-5.237c8.604,-1.271 17.137,-1.567 25.65,-1.588c9.525,0.046 19.05,0.483 28.521,1.387c3.429,14.892 6.421,29.975 6.9,45.317" style="fill:#111;fill-rule:nonzero;"/><path d="M201.357,741.933c4.121,57.708 5.55,115.562 6.137,173.396c0.2,19.275 0.192,38.546 0.096,57.825l-3.387,-3.492c23.346,1.475 46.696,3.054 69.992,5.217c7.775,0.658 15.546,1.367 23.312,2.221c-7.808,0.204 -15.613,0.258 -23.413,0.271c-24.496,0.221 -48.992,-0.213 -73.479,-0.708c-0.588,-20.408 -1.088,-40.825 -1.35,-61.237c-0.758,-57.833 -0.688,-115.704 2.092,-173.492" style="fill:#111;fill-rule:nonzero;"/><path d="M216.024,894.776c3.021,21.954 4.179,44.083 4.804,66.208l-3.863,-3.983c31.233,0.983 62.371,2.817 93.287,7.933c-31.238,2.525 -62.417,1.75 -93.621,0.125l-3.821,-0.221c-0.1,-23.383 0.617,-46.8 3.213,-70.062" style="fill:#111;fill-rule:nonzero;"/><path d="M2394.439,353.618c-12.175,-55.608 -21.721,-111.75 -30.446,-167.987c-2.904,-18.742 -5.625,-37.508 -8.229,-56.296l3.575,3c-23.396,-0.054 -46.796,-0.221 -70.183,-0.983c-7.8,-0.196 -15.6,-0.433 -23.404,-0.825c7.783,-0.679 15.571,-1.208 23.358,-1.696c24.35,-1.704 48.742,-2.754 73.125,-3.717c3.446,19.721 6.779,39.471 9.9,59.242c8.863,56.221 16.921,112.587 22.304,169.262" style="fill:#111;fill-rule:nonzero;"/><path d="M2350.407,184.925c-3.183,-14.204 -5.154,-28.546 -6.771,-42.963l3.721,3.396c-31.192,1.571 -62.525,1.867 -93.587,-1.921c30.904,-4.938 62.225,-5.812 93.45,-5.4l3.604,0.088c0.562,15.6 0.779,31.188 -0.417,46.8" style="fill:#111;fill-rule:nonzero;"/></g></svg>