<?xml version="1.0" encoding="UTF-8" standalone="no"?><!DOCTYPE svg PUBLIC "-//W3C//DTD SVG 1.1//EN" "http://www.w3.org/Graphics/SVG/1.1/DTD/svg11.dtd"><svg width="100%" height="100%" viewBox="0 0 1040 571" version="1.1" xmlns="http://www.w3.org/2000/svg" xmlns:xlink="http://www.w3.org/1999/xlink" xml:space="preserve" xmlns:serif="http://www.serif.com/" style="fill-rule:evenodd;clip-rule:evenodd;stroke-linejoin:round;stroke-miterlimit:2;"><rect id="Page-7" serif:id="Page 7" x="0" y="0" width="1039.286" height="570.388" style="fill:none;"/><path d="M259.568,242.622l-14.229,-199.958c-0.129,-1.783 -1.679,-3.125 -3.567,-3.117l-12.85,0.429c-3.137,0.1 -16.404,0.546 -30.229,1.017c-13.713,0.458 -27.971,0.942 -33.442,1.117c-1.533,0.054 -2.825,1.017 -3.212,2.396l-23.275,82.483c-0.196,0.696 -0.892,0.962 -1.429,0.983c-0.562,-0.004 -1.183,-0.196 -1.408,-0.833l-43.846,-123.288c-0.575,-1.608 -2.325,-2.683 -4.183,-2.475l-71.887,6.737c-1.958,0.188 -3.429,1.563 -3.492,3.279l-9.562,248.95c-0.042,0.988 0.346,1.9 1.079,2.567c0.713,0.65 1.683,1 2.733,1c0.213,0 0.429,-0.017 0.65,-0.046l55.9,-7.542c2.183,-0.292 3.817,-2.133 3.633,-4.104l-19.904,-215.646c-0.021,-0.271 0.071,-0.517 0.283,-0.733c0.342,-0.354 0.904,-0.554 1.504,-0.508l11.837,0.7c0.708,0.046 1.354,0.429 1.575,0.938l57.821,134.192c0.825,1.921 3.937,1.821 4.796,1.746c0.95,-0.013 23.304,-0.404 29.992,-4.088l0.367,-0.196l0.804,-2.15l27.512,-97.804c0.171,-0.454 0.688,-0.783 1.267,-0.687l25.625,2.162c0.65,0.054 1.171,0.562 1.158,1.129l-4.2,176.85c-0.025,0.946 0.354,1.846 1.037,2.471c0.7,0.646 1.675,0.954 2.662,0.842l45.3,-5.025c1.887,-0.204 3.312,-1.904 3.179,-3.787" style="fill:#111;fill-rule:nonzero;"/><path d="M304.931,81.47c11.663,2.613 27.142,5.792 43.454,7.229c0.363,0.029 0.65,0.396 0.671,0.85c1.696,37.342 4.558,76.046 8.746,118.329c0.033,0.346 -0.083,0.696 -0.317,0.937c-0.096,0.104 -0.271,0.246 -0.571,0.258l-45.85,-2.579c-0.371,-0.021 -0.654,-0.362 -0.675,-0.821l-6.471,-123.125c-0.017,-0.35 0.121,-0.692 0.375,-0.904c0.092,-0.079 0.267,-0.192 0.492,-0.192c0.046,0 0.096,0.004 0.146,0.017m-23.871,159.625c0.083,0 0.163,-0.004 0.246,-0.008l97.688,-7.958c1.625,-0.137 2.913,-1.658 2.867,-3.404c-1.442,-58.2 -4.192,-113.408 -8.171,-164.071c-0.121,-1.533 -1.242,-2.75 -2.671,-2.9c-23.546,-2.45 -49.075,-3.333 -75.888,-2.654l-6.429,0.142c-1.633,0.037 -2.975,1.412 -3.046,3.133l-7.558,174.446c-0.042,0.938 0.304,1.838 0.95,2.454c0.55,0.533 1.258,0.821 2.012,0.821" style="fill:#111;fill-rule:nonzero;"/><path d="M402.924,224.946c0.062,0.912 0.496,1.738 1.188,2.258c0.642,0.483 1.429,0.654 2.225,0.492l32.412,-6.875c1.625,-0.346 2.704,-2.05 2.404,-3.788l-13.546,-78.888c-0.129,-0.754 0.342,-1.096 0.604,-1.175c0.304,-0.071 0.517,0.046 0.671,0.417l37.125,90.221c0.45,1.083 1.438,1.762 2.529,1.762l0.104,0l26.783,-0.987c0.746,-0.029 1.45,-0.371 1.983,-0.954c0.6,-0.662 0.917,-1.571 0.863,-2.487l-9.654,-164.558c-0.054,-0.9 -0.458,-1.729 -1.113,-2.267c-0.592,-0.492 -1.317,-0.704 -2.067,-0.608l-24.9,3.258c-1.621,0.213 -2.762,1.817 -2.546,3.571l14.379,117.508c0.088,0.729 -0.367,1.05 -0.617,1.117c-0.183,0.029 -0.4,0.042 -0.575,-0.383l-49.542,-121.2c-0.417,-1.017 -1.321,-1.725 -2.35,-1.842l-24.608,-2.85c-0.846,-0.117 -1.683,0.192 -2.312,0.792c-0.7,0.671 -1.062,1.629 -0.988,2.629l4.796,68.525c2.85,40.708 6.004,85.775 6.75,96.313" style="fill:#111;fill-rule:nonzero;"/><path d="M530.938,70.297c-0.05,-0.317 0.033,-0.638 0.213,-0.854c0.075,-0.092 0.2,-0.204 0.358,-0.208l26.721,-1.079c0.2,-0.071 0.492,0.329 0.517,0.742l3.658,63.179c0.025,0.417 -0.158,0.717 -0.333,0.862c-0.112,0.096 -0.221,0.129 -0.333,0.1l-21.908,-5.658c-0.2,-0.05 -0.371,-0.3 -0.417,-0.604l-8.475,-56.479Zm-6.262,136.142c0.467,0.363 1.021,0.554 1.592,0.554c0.129,0 0.263,-0.008 0.392,-0.029c7.071,-1.058 25.092,-4.983 42.517,-8.775c17.221,-3.754 35.025,-7.633 41.796,-8.633c1.433,-0.212 2.504,-1.646 2.433,-3.262l-0.683,-16.329c-0.033,-0.863 -0.4,-1.658 -0.996,-2.183c-0.525,-0.463 -1.175,-0.692 -1.867,-0.633l-62.808,7.817c-0.233,-0.004 -0.442,-0.233 -0.496,-0.588l-3.642,-24.275c-0.058,-0.396 0.092,-0.729 0.254,-0.908c0.067,-0.075 0.188,-0.183 0.375,-0.192l29.804,1.571c0.742,0.038 1.417,-0.221 1.962,-0.725c0.621,-0.579 0.987,-1.433 1.008,-2.342l1.883,-99.817c0.017,-0.913 -0.329,-1.779 -0.946,-2.367c-0.542,-0.517 -1.25,-0.779 -1.958,-0.729l-63.533,4.054c-0.738,0.05 -1.417,0.4 -1.917,0.988c-0.562,0.658 -0.838,1.554 -0.75,2.454l14.467,152.242c0.083,0.85 0.487,1.621 1.113,2.108" style="fill:#111;fill-rule:nonzero;"/><path d="M616.743,123.339c0.392,1.092 1.325,1.792 2.383,1.792l0.025,0l35.025,-0.221c0.137,0.138 0.217,0.371 0.217,0.633l-0.179,82.942c-0.004,0.508 -0.312,0.867 -0.517,0.883l-90.025,7.583c-1.529,0.129 -2.725,1.617 -2.663,3.312l0.6,16.375c0.033,0.9 0.421,1.721 1.062,2.25c0.467,0.383 1.025,0.583 1.608,0.583c0.129,0 0.267,-0.008 0.404,-0.033l100.158,-15.792c1.262,-0.2 2.262,-1.388 2.383,-2.821l12.604,-153.792c0.075,-0.896 -0.2,-1.767 -0.758,-2.392c-0.471,-0.533 -1.104,-0.842 -1.779,-0.867l-19.963,-0.754c-0.654,0.025 -1.337,0.237 -1.854,0.729c-0.6,0.583 -0.946,1.425 -0.95,2.317l-0.083,37.546c0,0.475 -0.267,0.792 -0.45,0.829l-27.546,5.554c-0.167,0.05 -0.371,-0.175 -0.442,-0.479l-12.708,-54.2c-0.208,-0.875 -0.75,-1.596 -1.487,-1.971c-0.663,-0.35 -1.413,-0.371 -2.104,-0.083l-13.146,5.488c-1.462,0.612 -2.179,2.421 -1.604,4.029l21.788,60.558Z" style="fill:#111;fill-rule:nonzero;"/><path d="M724.557,215.26c0.017,0.812 0.675,1.462 1.487,1.467l7.046,0.037c0.812,0.004 1.479,-0.633 1.504,-1.446l1.163,-35.058c0.025,-0.738 0.583,-1.346 1.312,-1.433l17.421,-2.15c0.858,-0.108 1.45,-0.917 1.283,-1.767l-2.071,-10.8c-0.158,-0.842 -0.992,-1.375 -1.825,-1.171l-13.754,3.383c-0.963,0.237 -1.888,-0.513 -1.854,-1.504l0.517,-15.621c0.029,-0.821 0.708,-1.462 1.525,-1.45l25.721,0.508c0.854,0.017 1.55,-0.683 1.525,-1.542l-0.413,-13.912c-0.025,-0.858 -0.758,-1.517 -1.612,-1.45c-7.458,0.583 -32.221,2.567 -39.096,3.1c-0.788,0.062 -1.392,0.729 -1.375,1.521l0.092,4.796l1.404,74.492Z" style="fill:#111;fill-rule:nonzero;"/><path d="M781.304,143.58l19.633,4.983c0.721,0.029 1.296,0.717 1.342,1.579c0.642,12.029 1.637,23.8 2.829,35.938c0.096,0.979 -0.521,1.85 -1.337,1.892c-7.608,0.375 -14.946,0.875 -22.371,1.717c-0.825,0.092 -1.538,-0.667 -1.538,-1.658c-0.012,-10.225 -0.008,-35.183 -0.017,-42.771c0,-0.958 0.663,-1.717 1.458,-1.679m-11.242,60.575c14.108,-1.912 28.579,-4.55 42.454,-7.712c0.663,-0.15 1.142,-0.842 1.146,-1.654c0.158,-19.008 -0.142,-38.588 -1.029,-57.65c-0.046,-0.963 -0.742,-1.683 -1.538,-1.588c-6.692,0.792 -31.342,-0.425 -34.679,-0.008l-1.808,0.213c-0.667,0.079 -1.2,0.717 -1.263,1.521l-0.158,2.004c-0.312,3.996 -3.862,52.642 -4.683,63.038c-0.083,1.071 0.671,1.958 1.558,1.837" style="fill:#111;fill-rule:nonzero;"/><path d="M827.019,186.648l14.862,0c0.871,0 1.558,-0.742 1.492,-1.608l-1.179,-32.354c-0.037,-0.496 0.175,-0.979 0.567,-1.287l11.008,-8.683c0.596,-0.467 1.45,-0.417 1.987,0.121c0.271,0.271 0.425,0.637 0.433,1.021l0.321,13.933c0.021,0.825 0.7,1.479 1.525,1.463l8.663,-0.175c0.829,-0.017 1.483,-0.704 1.467,-1.529c-0.1,-4.346 -0.367,-15.575 -0.442,-19.05c-0.012,-0.55 -0.325,-1.046 -0.817,-1.296c-3.138,-1.596 -8.183,-4.162 -11.292,-5.742c-0.467,-0.233 -1.017,-0.213 -1.458,0.058c-1.75,1.079 -6.35,3.912 -10.863,6.688c-0.954,0.587 -2.192,-0.042 -2.275,-1.163l-0.138,-1.846c-0.058,-0.783 -0.712,-1.383 -1.492,-1.383l-8.875,0c-0.783,0 -1.438,0.604 -1.492,1.387l-3.496,49.842c-0.062,0.867 0.625,1.604 1.492,1.604" style="fill:#111;fill-rule:nonzero;"/><path d="M465.497,275.737c6.296,62.104 5.954,125.054 9.979,187.363c0.129,2.167 -2.475,3.988 -5.204,3.592c-30.292,0.292 -62.504,-4.467 -91.971,-11.304c-1.942,-0.146 -3.35,-1.479 -3.308,-3.137c0.983,-58.55 1.792,-117.463 -2.108,-175.925c-0.083,-0.887 1.908,-1.692 4.104,-1.688c28.429,0.046 56.862,0.113 85.296,0.05c1.779,-0.004 3.137,0.433 3.212,1.05m-125.667,-14.804c-1.875,0.092 -3.504,0.863 -3.629,1.675c-13.679,74.783 -10.946,156.025 -12.583,231.704c-0.029,1.821 1.312,3.229 3.204,3.363c54.896,3.704 110.229,4.975 165.2,1.938c5.733,-0.279 8.604,-0.429 14.338,-0.742c2.338,-0.129 4.238,-1.842 4.321,-3.921c0.192,-4.512 0.283,-6.917 0.471,-11.492c-2.479,-73.946 -1.738,-148.563 -7.225,-222.346c0.062,-0.946 -1.679,-1.658 -3.8,-1.496c-53.417,1.042 -106.896,-0.396 -160.296,1.317" style="fill:#111;fill-rule:nonzero;"/><path d="M181.811,285.643c-56.042,-0.142 -112.092,-1.996 -168.129,-0.567c-1.988,0.067 -3.388,1.179 -3.367,2.646c0.046,3.542 0.071,5.312 0.117,8.858c1.1,82.029 2.196,164.058 3.296,246.088c0.025,1.679 2.025,3.075 4.387,3.062c24.121,-0.146 36.183,-0.217 60.304,-0.363c2.267,-0.012 3.967,-1.4 3.729,-3.042c-5.746,-40.171 -11.496,-80.342 -17.246,-120.513c-0.229,-1.583 1.279,-2.883 3.412,-2.958c28.562,1.975 57.121,3.95 85.683,5.921c2.287,-0.083 3.75,-1.688 3.1,-3.4c-4.9,-12.921 -7.35,-19.383 -12.254,-32.308c-0.646,-1.712 -3.087,-2.783 -5.212,-2.287c-29.621,1.229 -44.433,1.842 -74.058,3.071c-2.517,0.575 -5.375,-0.883 -5.662,-2.9c-4.037,-28.225 -6.058,-42.338 -10.1,-70.558c-0.254,-1.788 1.612,-3.117 4.033,-2.875c44.608,4.588 89.217,9.175 133.825,13.758c2.212,0.225 3.929,-1.058 3.7,-2.767c-2.042,-15.212 -3.058,-24.262 -5.1,-36.388c-0.229,-1.371 -2.279,-2.487 -4.458,-2.479" style="fill:#111;fill-rule:nonzero;"/><path d="M675.399,519.291c-0.342,-1.05 -1.483,-1.729 -2.708,-1.613c-131.192,4.696 -262.075,4.617 -393.313,5.567c-2.296,0.15 -4.246,-1.471 -3.883,-3.238c4.471,-80.012 8.467,-160.075 13.738,-240.042c0.317,-0.933 -1.15,-1.883 -3.192,-2.108c-25.362,-2.846 -38.046,-3.592 -63.408,-7.325c-2.029,-0.296 -3.804,0.163 -3.958,1.038c1.383,86.842 1.842,173.704 2.708,260.55c-0.217,5.275 -0.325,7.908 -0.546,13.179c-0.067,1.596 1.671,2.942 3.762,2.929c6.696,-0.05 10.046,-0.075 16.738,-0.125c146.783,1.592 293.537,4.004 440.325,5.038c1.633,-0.067 2.767,-1.483 2.321,-2.883c-3.433,-12.508 -5.15,-18.646 -8.583,-30.967" style="fill:#111;fill-rule:nonzero;"/><path d="M685.91,250.587c-0.075,-1.279 -1.296,-2.396 -2.729,-2.471c-12.258,-0.638 -18.383,-0.917 -30.642,-1.442c-1.479,-0.062 -2.608,0.942 -2.521,2.204c5.054,74.175 9.108,148.417 13.288,222.646c-1.204,-0.029 -1.438,-0.038 -2.525,-0.067c-7.387,-41.692 -14.696,-83.4 -22.246,-125.063c-1.025,-5.075 -1.542,-7.654 -2.571,-12.921c-0.267,-1.367 -1.763,-2.542 -3.267,-2.546c-7.375,-0.033 -11.062,-0.029 -18.438,0.05c-0.1,0 -0.183,0.004 -0.279,0.017c-2.763,0.342 -11.712,1.558 -16.221,2.242c-1.096,0.167 -1.808,1.025 -1.8,2.146c0.029,2.938 0.046,4.413 0.075,7.358c-4.458,39.179 -8.975,78.296 -14.667,117.317c-0.033,0.983 -0.938,1.825 -2.192,2.025c-0.667,0.104 -1,0.158 -1.667,0.262c-2.258,-70.521 -3.267,-141.063 -6.233,-211.558c-0.071,-1.2 -1.471,-2.296 -3.083,-2.342c-19.154,-0.537 -28.729,-0.842 -47.883,-1.996c-1.683,-0.1 -2.913,1.029 -2.692,2.383c18.758,73.571 25.442,149.029 39.088,223.783c0.296,1.867 0.446,2.808 0.742,4.729c0.154,1.008 1.088,1.833 2.312,2.025c8.954,1.396 31.975,4.971 38.392,5.967c5.237,0.812 7.854,1.217 13.092,2.021c1.671,0.258 3.183,-0.887 3.146,-2.383c-0.142,-5.471 -0.212,-8.15 -0.354,-13.325c2.7,-16.75 4.05,-24.146 6.754,-40.221c-0.054,-2.721 4.908,-3.15 5.338,-0.45c3.587,21.017 5.379,30.933 8.967,54.342c0.008,0.046 0.017,0.092 0.025,0.133c0.55,2.629 0.825,3.933 1.375,6.533c0.196,0.933 1,1.663 2.054,1.846c16.096,2.788 40.271,7.058 56.296,10.004c1.604,0.296 3.071,-0.863 2.987,-2.346c-0.342,-6.229 -0.513,-9.35 -0.858,-15.646c-3.354,-78.438 -7.275,-156.842 -11.062,-235.258" style="fill:#111;fill-rule:nonzero;"/><path d="M788.656,536.909c-4.658,-0.083 -16.054,-0.313 -28.554,-0.925c-1.171,-0.058 -2.129,-0.921 -2.237,-2.021c-5.733,-57.604 -8.754,-116.463 -18.367,-173.592c-0.142,-0.854 1.046,-1.508 2.525,-1.4c11.688,0.883 17.529,1.279 29.217,2c1.387,0.088 2.525,-0.517 2.475,-1.296c-0.375,-5.779 -0.562,-8.383 -0.933,-15.054c-0.054,-0.908 -1.271,-1.658 -2.654,-1.608c-12.362,0.45 -18.542,0.242 -30.904,-0.204c-1.367,-0.05 -2.6,-0.858 -2.729,-1.825c-3.062,-22.542 -4.592,-43.046 -7.65,-72.158c-0.146,-1.379 1.071,-2.404 2.579,-2.167c22.421,3.512 33.633,5.858 56.05,8.183c1.333,0.142 2.454,-0.808 2.479,-2.087c0.154,-7.679 0.233,-11.517 0.392,-19.242c0.025,-1.296 -1.042,-2.429 -2.379,-2.512c-13.392,-0.85 -68.008,-6.979 -81.642,-8.279c-1.458,-0.138 -2.596,0.925 -2.504,2.308c0.242,3.558 0.367,5.288 0.608,8.687c7.375,99.238 15.221,198.392 21.963,297.683c0.342,5.033 0.512,7.558 0.854,12.617c0.083,1.258 1.254,2.2 2.608,2.079c12.6,-1.133 46.358,-5.017 58.954,-6.112c1.196,-0.104 2.117,-1.067 2.117,-2.208c-0.012,-7.475 -0.021,-11.213 -0.029,-18.683c-0.004,-1.192 -0.987,-2.162 -2.237,-2.183" style="fill:#111;fill-rule:nonzero;"/><path d="M832.803,342.455c-1.221,0.071 -2.254,-0.562 -2.337,-1.446c-1.742,-18.796 -2.617,-34.604 -4.358,-59.829c-0.104,-1.504 1.296,-2.683 2.792,-2.362c11.05,2.379 16.575,3.471 27.625,5.608c0.871,0.171 1.538,0.846 1.692,1.717c3.904,21.888 5.854,34.488 9.754,52.013c0.233,1.042 -0.758,2.042 -2.096,2.138c-13.229,0.912 -19.842,1.383 -33.071,2.162m25.167,14.292c-0.329,-0.925 0.517,-1.863 1.821,-2.017c7.708,-0.925 11.567,-1.408 19.275,-2.4c2.275,-0.296 3.413,-0.442 5.688,-0.738c1.05,-0.142 1.837,-0.858 1.85,-1.708c0.512,-30.771 0.854,-61.546 1.254,-92.321c0.013,-1.225 -0.933,-2.192 -2.138,-2.158c-13.192,0.362 -59.35,0.983 -69.637,0.779c-3.646,-0.075 -5.471,-0.125 -9.117,-0.25c-1.308,-0.046 -2.363,0.954 -2.346,2.229c0.038,3.121 0.054,4.679 0.092,7.792c1.167,96.317 2.583,192.629 3.729,288.946c0.012,1.221 1.075,2.175 2.342,2.112c13.208,-0.667 19.808,-1 33.017,-1.667c1.233,-0.062 2.188,-1.104 2.104,-2.304c-4.35,-64.558 -7.25,-129.45 -13.638,-193.85c-0.079,-0.783 0.758,-1.475 1.925,-1.596c3.046,-0.317 4.571,-0.479 7.621,-0.808c1.233,-0.137 2.379,0.45 2.542,1.308c12.446,66.8 18.75,135.2 27.567,202.546c0.158,1.192 1.296,1.983 2.496,1.742c13.421,-2.733 20.133,-4.1 33.554,-6.829c1.179,-0.242 1.929,-1.429 1.633,-2.587c-16.475,-64.963 -29.212,-132.967 -51.633,-196.221" style="fill:#111;fill-rule:nonzero;"/><path d="M970.554,162.286l34.571,-1.858l2.925,10.871l-35.646,4.358l-1.85,-13.371Zm38.746,38.729l21.221,-21.213l-20.858,-10.546l0.104,-0.892l26.629,-4.542l-10.171,-33.725c-2.525,-0.942 -3.554,-1.329 -6.079,-2.275l-28.7,18.038l-0.846,11.008l-2.379,-9.858l-36.962,-2.929l1.121,30.1l15.129,-2.146l-9.192,8.412l9.571,15.354l20.25,-11.25c-0.267,11.096 -1.071,22.208 -3.571,32.904l-1.821,-7.262l-19.488,-7.812l-5.104,4.262l19.129,15.725l5.783,0.692c-0.292,0.983 -0.554,1.975 -0.883,2.946c-5.492,16.617 -16.292,23.133 -32.871,26.579c-3.837,0.879 -7.771,1.796 -11.688,2.875l4.258,1.296c-5.079,-1.162 -9.242,-2.071 -11.788,-2.558c-0.867,-0.167 -1.75,0.246 -2.204,1.05c-3.033,5.346 -9.275,16.554 -11.992,21.312c-0.196,0.342 -0.292,0.712 -0.296,1.1c-0.012,0.783 -0.017,1.175 -0.025,1.958c-0.362,32.717 -0.763,65.433 -1.183,98.154c0,0 -0.021,1.775 -0.033,2.879c-0.004,0.546 0.208,1.075 0.6,1.488c2.371,2.483 10.725,11.596 11.192,12.146c1.321,1.446 1.979,2.167 3.3,3.613c0.5,0.546 1.225,0.8 1.921,0.671c1.121,-0.213 1.679,-0.321 2.796,-0.529c18.496,-3.496 27.742,-5.196 46.233,-8.758c0.042,0.092 0.062,0.137 0.108,0.229c-2.304,50.346 -4.608,100.692 -6.913,151.033c-0.013,0.258 -0.071,0.513 -0.171,0.746c-0.125,0.288 -0.188,0.429 -0.312,0.717c-0.267,0.604 -0.796,1.046 -1.421,1.179l-20.675,4.45c-0.413,0.087 -0.842,0.042 -1.221,-0.138c-1.025,-0.479 -1.537,-0.717 -2.562,-1.196c-0.592,-0.275 -1.004,-0.833 -1.104,-1.496c-6.025,-39.108 -12.046,-78.221 -18.067,-117.333c-0.175,-1.125 -1.179,-1.938 -2.275,-1.842c-6.054,0.537 -9.083,0.804 -15.137,1.342c-1.125,0.096 -1.938,1.096 -1.825,2.25c4.008,42.508 8.017,85.021 12.029,127.529c0.312,3.342 0.471,5.012 0.788,8.354c0.092,0.95 0.808,1.692 1.75,1.783c6.087,0.596 17.671,1.725 22.629,2.213c1.529,0.15 2.296,0.225 3.825,0.371c0.496,-0.112 0.746,-0.167 1.246,-0.279c3.463,-0.775 29.238,-6.579 35.062,-7.887c0.617,-0.137 1.129,-0.575 1.388,-1.179c0.712,-1.637 1.067,-2.454 1.779,-4.096c1.542,-3.55 2.308,-5.325 3.85,-8.875c0.271,-0.621 0.404,-0.929 0.675,-1.55c0.075,-0.783 0.112,-1.179 0.192,-1.963c5.054,-51.237 10.113,-102.471 15.167,-153.704c0.275,-2.792 0.413,-4.183 0.688,-6.967c0.075,-0.792 -0.279,-1.583 -0.921,-2.029c-3.879,-2.683 -12.758,-8.792 -15.654,-10.779c-2.521,-1.717 -3.783,-2.571 -6.304,-4.262c-0.512,-0.342 -1.133,-0.429 -1.692,-0.238c-1.096,0.383 -1.646,0.575 -2.746,0.958c-17.329,6.046 -25.996,9.05 -43.325,15.05c-1.188,0.408 -2.5,-0.4 -2.746,-1.671c-0.625,-3.279 -1.175,-6.046 -1.175,-6.046c0.492,2.008 0.733,3.021 1.225,5.079c0.483,-33.288 0.963,-66.571 1.408,-99.858c-0.242,1.417 -0.358,2.125 -0.6,3.538c0,0 0.45,-3.383 0.971,-7.288c0.175,-1.325 1.446,-2.2 2.663,-1.821c16.279,5.029 24.417,7.704 40.696,13.775c0.938,0.35 1.513,1.379 1.354,2.413c-3.254,21.058 -4.883,31.888 -8.133,52.133c-0.192,1.183 0.658,2.296 1.829,2.4c6.087,0.533 23.017,2.342 28.975,3.087c1.138,0.142 2.079,-0.787 2.033,-2.012c-0.463,-11.929 -2.062,-61.038 -2.479,-70.979c-0.042,-0.958 -0.662,-1.817 -1.525,-2.088c-6.646,-2.1 -25.733,-6.954 -43.171,-11.167c2.833,-1.075 5.638,-2.254 8.337,-3.717c16.783,-8.637 23.129,-28.379 24.508,-45.871c0.954,-9.792 0.9,-19.5 0.442,-29.138l2.171,0.258l13.263,18.312Z" style="fill:#111;fill-rule:nonzero;"/><path d="M986.058,116.641l0.517,-20.337l-8.379,0.396l5.079,20.25c0.4,1.596 2.742,1.333 2.783,-0.308" style="fill:#111;fill-rule:nonzero;"/><path d="M930.087,148.192l-14.396,-6.108l-2.496,6.621l16.192,1.733c1.275,0.137 1.862,-1.754 0.7,-2.246" style="fill:#111;fill-rule:nonzero;"/></svg>