<svg width="687" height="300" viewBox="0 0 687 300" fill="none" xmlns="http://www.w3.org/2000/svg">
<g clip-path="url(#clip0_21_1306)">
<mask id="mask0_21_1306" style="mask-type:luminance" maskUnits="userSpaceOnUse" x="0" y="0" width="687" height="300">
<path d="M686.824 0H0V299.965H686.824V0Z" fill="white"/>
</mask>
<g mask="url(#mask0_21_1306)">
<path d="M150.361 166.35L153.492 159.395C153.584 159.19 153.733 159.016 153.92 158.894L179.512 142.159C180.129 141.756 180.96 142.012 181.242 142.691L183.758 148.752C183.924 149.15 183.856 149.608 183.583 149.943L167.062 170.164C166.824 170.456 166.459 170.615 166.083 170.594L153.039 169.842C152.732 169.825 152.444 169.687 152.237 169.46L150.563 167.62C150.249 167.274 150.168 166.775 150.361 166.35Z" fill="#F6ECDE"/>
<path d="M153.271 104.218C156.11 120.341 155.899 136.86 154.664 153.105C153.804 165.221 152.247 177.195 152.017 189.267C151.734 200.482 153.098 213.054 160.414 221.64C163.972 225.801 168.816 229.1 173.854 231.332C177.411 233.038 181.565 234.145 185.145 235.835C186.564 236.495 189.415 237.926 190.795 238.671C199.911 243.669 208.548 249.287 216.81 255.584C218.473 256.866 220.115 258.209 221.789 259.746C223.563 261.376 223.679 264.134 222.045 265.905C220.363 267.742 217.453 267.782 215.714 266.004C213.041 263.416 209.86 260.92 206.826 258.612C200.508 253.868 193.873 249.344 187.051 245.379C184.729 244.048 181.792 242.478 179.351 241.44C176.541 240.25 173.471 239.223 170.765 237.796C160.669 233.009 152.491 224.975 149.029 214.203C145.063 202.19 146.164 189.167 147.363 176.833C150.054 152.875 153.732 128.692 150.114 104.723C149.986 103.851 150.59 103.04 151.464 102.912C152.322 102.787 153.122 103.37 153.271 104.218Z" fill="#F6ECDE"/>
<path d="M131.127 98.5469L104.704 114.842L126.523 98.6002L124.756 83.0785L110.199 70.2276L128.971 82.8003L164.625 81.7518L185.779 59.9419L166.578 83.0562L169.084 93.3474L195.487 117.852L166.877 95.0591L131.128 98.5467L131.127 98.5469ZM245.923 132.184L241.072 92.5976C240.951 91.6101 240.145 90.8473 239.15 90.7812L174.986 86.4788C174.428 86.4415 173.959 86.0457 173.83 85.5018C173.648 84.7393 174.194 83.9959 174.976 83.9373L213.493 81.0735C214.292 81.0149 214.985 80.5019 215.274 79.7552L225.837 52.5561C226.344 51.2496 225.435 49.8269 224.035 49.7373L142.852 44.5016C141.553 44.4174 140.499 45.5329 140.656 46.8225L144.495 78.1792L126.494 48.0108C126.134 47.4072 125.493 47.0263 124.789 46.9997L68.1535 44.8346C66.8559 44.7855 65.8315 45.9236 66.0194 47.2067L71.8384 87.0307C71.9966 88.1143 72.9717 88.8876 74.0642 88.798L111.434 85.7145L71.3449 107.333C70.5449 107.766 70.1188 108.667 70.2939 109.558L81.9511 168.828C82.2405 170.303 83.958 170.99 85.1875 170.12L153.619 121.787L152.428 103.718L169.287 133.817L243.843 134.509C245.098 134.521 246.076 133.428 245.923 132.184" fill="#F6ECDE"/>
<path d="M152.097 181.592L143.35 165.416C143.054 164.87 142.501 164.505 141.909 164.464L105.028 161.962C104.068 161.897 103.349 162.691 103.489 163.662L104.387 169.869C104.48 170.515 104.939 171.079 105.555 171.308L136.1 182.649C136.146 182.666 136.192 182.685 136.237 182.706L145.374 187.001C145.895 187.246 146.478 187.213 146.917 186.911L151.692 183.631C152.324 183.198 152.496 182.329 152.097 181.592" fill="#F6ECDE"/>
<path d="M602.287 199.532L599.63 199.148L592.116 192.67L594.203 191.013L601.939 194.33L602.891 198.559L602.287 199.532Z" fill="#F6ECDE"/>
<path d="M237.636 76.9106C237.646 78.6714 236.224 80.1059 234.461 80.1156C232.697 80.1253 231.261 78.7057 231.251 76.9449C231.241 75.184 232.663 73.7496 234.426 73.7398C236.19 73.7301 237.626 75.1497 237.636 76.9106Z" fill="#F6ECDE"/>
<path d="M243.203 155.659C243.209 156.904 242.204 157.919 240.958 157.925C239.711 157.932 238.694 156.928 238.688 155.683C238.681 154.438 239.687 153.423 240.933 153.417C242.179 153.411 243.196 154.414 243.203 155.659Z" fill="#F6ECDE"/>
<path d="M109.068 209.531C109.074 210.776 108.069 211.791 106.823 211.797C105.576 211.804 104.559 210.8 104.553 209.555C104.547 208.31 105.552 207.295 106.798 207.289C108.045 207.283 109.061 208.286 109.068 209.531Z" fill="#F6ECDE"/>
<path d="M229.167 67.7148C229.174 68.9337 228.189 69.9279 226.968 69.9343C225.747 69.9407 224.752 68.9573 224.745 67.7383C224.739 66.5191 225.724 65.5252 226.945 65.5188C228.166 65.5124 229.161 66.4958 229.167 67.7148Z" fill="#F6ECDE"/>
<path d="M238.537 62.5162C238.542 63.3962 237.831 64.114 236.95 64.1181C236.068 64.1235 235.35 63.4131 235.345 62.5331C235.341 61.6531 236.051 60.9353 236.933 60.9312C237.815 60.9259 238.533 61.6362 238.537 62.5162Z" fill="#F6ECDE"/>
<path d="M246.654 149.81C246.658 150.69 245.948 151.408 245.066 151.412C244.184 151.417 243.466 150.707 243.461 149.827C243.457 148.947 244.167 148.229 245.05 148.225C245.931 148.22 246.65 148.93 246.654 149.81Z" fill="#F6ECDE"/>
<path d="M74.6487 168.564C74.6561 169.952 73.5356 171.083 72.145 171.091C70.7553 171.098 69.6233 169.978 69.6156 168.591C69.6082 167.203 70.7287 166.071 72.1181 166.064C73.5087 166.057 74.641 167.176 74.6484 168.564" fill="#F6ECDE"/>
<path d="M237.015 143.883C237.019 144.438 236.57 144.891 236.013 144.894C235.457 144.897 235.004 144.449 235.001 143.893C234.998 143.338 235.446 142.885 236.003 142.882C236.559 142.879 237.012 143.327 237.015 143.883Z" fill="#F6ECDE"/>
<path d="M178.444 239.872C173.519 231.316 172.079 218.88 180.731 212.144C181.094 211.832 181.851 211.275 182.253 211.018C185.875 208.427 190.866 208.361 194.978 208.597C213.087 209.467 244.958 222.377 244.927 193.27C244.933 192.385 245.659 191.674 246.544 191.685C247.41 191.694 248.107 192.393 248.123 193.252C248.164 195.497 248.058 197.77 247.666 200.045C247.082 203.479 245.731 207.02 243.376 209.731C232.424 221.862 209.022 214.12 194.734 213.906C190.968 213.852 187.191 213.863 184.436 216.532C178.744 221.244 180.326 229.46 183.407 235.256C183.634 235.684 183.893 236.158 184.09 236.46C186.338 240.274 180.799 243.639 178.444 239.871" fill="#F6ECDE"/>
<path d="M574.732 215.398C578.825 212.884 583.635 211.881 588.125 210.973C594.803 209.753 599.197 207.25 601.559 200.652C603.782 194.587 604.228 188.007 604.459 181.521C604.474 180.925 604.97 180.453 605.569 180.467C606.142 180.481 606.6 180.946 606.624 181.51C606.783 185.971 606.76 190.464 606.205 194.987C605.482 201.977 602.747 209.817 595.937 213.11C590.004 216.135 583.141 216.279 577.768 220.089C574.567 222.155 571.517 217.483 574.732 215.398Z" fill="#F6ECDE"/>
<path d="M229.342 188.831L228.163 178.485L254.892 177.7L256.947 186.137L229.342 188.831ZM258.329 183.907L278.973 180.903L270.656 150.73L244.605 166.213L243.745 174.685L242.09 167.04L213.604 164.089L213.906 187.317L225.628 185.946L218.372 192.259L225.477 204.279L244.564 194.287L247.458 194.705L257.354 209.074L274.139 193.113L258.229 184.592L258.329 183.907Z" fill="#F6ECDE"/>
<path d="M598.13 180.405L597.518 175.035L611.394 174.626L612.46 179.006L598.13 180.405ZM613.177 177.849L623.895 176.289L620.147 162.692C619.144 162.289 618.734 162.125 617.732 161.722L606.053 168.663L605.606 173.061L604.748 169.093L589.96 167.56L590.117 179.619L596.202 178.907L592.435 182.184L596.124 188.424L606.031 183.237L607.534 183.454L612.672 190.913L621.386 182.627L613.126 178.204L613.177 177.849Z" fill="#F6ECDE"/>
<path d="M155.359 221.299L152.961 213.062C152.908 212.882 152.718 212.779 152.538 212.833L139.452 216.799C139.422 216.809 139.393 216.813 139.362 216.814L98.464 217.73C98.2131 217.736 98.0559 218.002 98.1713 218.224L104.517 230.33C104.561 230.413 104.638 230.475 104.729 230.499L132.257 237.815C132.354 237.84 132.458 237.822 132.54 237.764L155.23 221.669C155.347 221.586 155.4 221.437 155.359 221.299" fill="#F6ECDE"/>
<path d="M207.842 212.942L211.579 212.02C211.661 212 211.71 211.917 211.69 211.836L209.244 204.246C209.241 204.233 209.238 204.219 209.239 204.206L207.696 191.453C207.698 191.341 207.582 191.265 207.48 191.313L201.552 189.803C201.514 189.821 201.485 189.855 201.472 189.895L199.82 202.231C199.806 202.275 199.812 202.322 199.837 202.359L207.678 212.878C207.713 212.931 207.779 212.958 207.842 212.942Z" fill="#F6ECDE"/>
<path d="M217.331 215.999L218.617 214.45C218.645 214.416 218.696 214.41 218.73 214.439L221.757 217.319C221.763 217.323 221.768 217.327 221.775 217.33L227.446 220.96C227.5 220.984 227.508 221.056 227.464 221.093L226.827 224.228C226.81 224.242 226.788 224.248 226.765 224.245L220.563 222.215C220.54 222.211 220.519 222.197 220.507 222.177L217.325 216.091C217.307 216.062 217.31 216.025 217.331 215.999" fill="#F6ECDE"/>
<path d="M619.787 224.082C619.791 224.962 619.081 225.68 618.199 225.684C617.317 225.689 616.599 224.979 616.594 224.099C616.59 223.219 617.3 222.501 618.182 222.497C619.064 222.491 619.782 223.202 619.787 224.082Z" fill="#F6ECDE"/>
<path d="M621.709 242.481C621.716 243.868 620.596 245 619.205 245.007C617.816 245.015 616.683 243.895 616.676 242.507C616.668 241.12 617.789 239.988 619.178 239.981C620.569 239.974 621.701 241.093 621.709 242.481Z" fill="#F6ECDE"/>
<path d="M614.071 233.658C614.076 234.653 613.273 235.464 612.276 235.469C611.28 235.474 610.468 234.672 610.463 233.677C610.457 232.682 611.261 231.872 612.257 231.866C613.254 231.861 614.065 232.663 614.071 233.658Z" fill="#F6ECDE"/>
<path d="M602.906 201.205L603.61 198.683L607.472 199.808L619.337 199.947L617.47 203.604L609.536 205.804L602.905 201.206L602.906 201.205Z" fill="#F6ECDE"/>
<path d="M297.159 30.3205C298.845 30.4741 299.774 30.5593 301.629 30.728C302.06 30.7674 302.438 31.018 302.577 31.3615L321.995 79.1772L323.546 82.9943C323.756 83.5147 325.007 83.5032 325.007 83.5032C325.007 83.5032 334.084 83.9992 336.719 82.8067L336.988 82.1839L349.073 45.1682C349.224 44.8183 349.631 44.6135 350.067 44.666L360.537 45.9438C361.049 46.0067 361.438 46.4153 361.415 46.8673L357.877 115.553C357.85 116.071 358.3 116.496 358.866 116.489L377.838 116.23C378.383 116.223 378.815 115.794 378.789 115.289L375.102 41.5282L374.837 36.2201C374.814 35.7563 374.365 35.3711 373.846 35.3701L368.464 35.3519C365.862 35.337 346.813 35.2899 342.379 35.2687C341.958 35.2666 341.602 35.497 341.49 35.8416L340.757 38.0941L331.372 66.9507C331.095 67.8038 329.691 67.7847 329.401 66.923L314.963 23.8715L313.522 19.5776C313.38 19.1542 312.892 18.8619 312.376 18.8962C305.444 19.3623 292.359 20.2369 285.158 20.721C284.64 20.755 284.247 21.0858 284.219 21.5081L284.004 24.7835L278.227 112.862C278.19 113.422 278.715 113.868 279.378 113.842L300.352 112.996C300.952 112.972 301.428 112.525 301.394 112.011C300.831 103.563 296.77 42.5332 296.016 31.198C295.981 30.6689 296.518 30.2626 297.159 30.3212" fill="#F6ECDE"/>
<path d="M422.04 105.901L401.761 103.241C401.349 103.186 401.037 102.842 401.024 102.427L399.481 53.0148C399.464 52.4527 399.993 52.0323 400.538 52.1701C406.931 53.7806 413.091 55.1265 419.57 55.949C419.983 56.0012 420.297 56.3457 420.308 56.7627C420.702 72.9594 421.646 88.7967 422.994 104.99C423.039 105.528 422.576 105.971 422.04 105.901ZM432.635 114.769C432.591 92.5497 432.013 69.8844 430.639 47.5572C430.615 47.152 430.306 46.8192 429.903 46.7647C418.817 45.2706 407.288 44.5195 396.384 44.3414L393.604 44.2858C393.154 44.2774 392.775 44.6217 392.741 45.0709L392.561 47.5346L388.096 108.622L387.691 114.156C387.656 114.643 388.038 115.058 388.526 115.065L394.182 115.137C396.868 115.172 426.157 115.546 431.776 115.618C432.25 115.624 432.635 115.243 432.634 114.769" fill="#F6ECDE"/>
<path d="M368.751 160.205L391.527 156.62C392.017 156.542 392.386 156.816 392.394 157.268L393.668 220.369C393.686 221.213 392.933 221.951 392.168 221.85C383.256 222.48 374.881 221.352 367.258 220.012C366.749 220.016 366.394 219.593 366.422 219.014C367.476 197.62 367.781 178.806 367.657 161.444C367.654 160.896 368.184 160.294 368.751 160.205M358.599 154.456C356.259 177.529 354.155 204.047 352.743 233.82C352.716 234.402 353.039 234.838 353.518 234.858C367.162 235.412 382.499 234.777 398.08 233.276L402.224 232.892C402.903 232.829 403.468 232.204 403.509 231.472L403.728 227.493L403.383 145.365C403.412 144.841 402.927 144.55 402.325 144.726C402.325 144.726 365.225 151.702 359.542 153.366C359.069 153.504 358.646 153.993 358.599 154.456Z" fill="#F6ECDE"/>
<path d="M460.259 111.898L454.724 78.6663C454.559 77.6787 455.946 77.2733 456.34 78.1948L472.111 115.054L473.001 117.134C473.128 117.431 473.413 117.631 473.737 117.648L476.058 117.769C478.596 117.904 483.692 118.17 486.716 118.33C487.214 118.357 487.625 117.947 487.604 117.448L487.431 113.359L484.649 47.5495C484.629 47.0716 484.216 46.7058 483.738 46.7411L471.706 47.635C471.225 47.67 470.872 48.0978 470.925 48.5747L476.578 98.2643C476.688 99.2337 475.339 99.59 474.955 98.6931L453.564 48.6973L452.77 46.8425C452.654 46.5706 452.404 46.3797 452.11 46.3369L449.617 45.9806C447.48 45.6788 443.394 45.0891 440.752 44.7125C440.224 44.6378 439.758 45.0591 439.786 45.5913C440.21 53.5871 442.959 105.939 443.37 113.668C443.397 114.151 443.823 114.512 444.306 114.462L459.51 112.879C459.996 112.829 460.339 112.379 460.259 111.898Z" fill="#F6ECDE"/>
<path d="M506.237 51.6934C510.601 51.7254 515.656 51.7628 519.714 51.7927C520.166 51.7958 520.53 52.1521 520.549 52.6034L521.733 80.0009C521.758 80.5769 521.212 81.0087 520.657 80.8531L509.641 77.7642C509.32 77.6747 509.081 77.4038 509.032 77.0741L505.396 52.6651C505.319 52.1511 505.717 51.6893 506.237 51.6934ZM545.361 97.3387L512.953 98.4758C512.532 98.4758 512.175 98.1686 512.113 97.7537L510.54 87.1938C510.458 86.6455 510.918 86.1678 511.47 86.2275L524.238 87.6118L526.598 87.8677C527.091 87.921 527.513 87.567 527.536 87.0722C527.874 79.9871 529.247 50.753 529.579 43.7872C529.603 43.2978 529.212 42.8967 528.722 42.9051C521.706 43.0321 503.71 43.3564 496.686 43.4831C496.196 43.4915 495.82 43.9065 495.861 44.3949C496.636 53.5277 500.658 100.948 501.401 109.705C501.439 110.161 501.829 110.497 502.285 110.474C509.323 110.128 538.427 106.587 545.592 106.231C546.052 106.209 546.404 105.824 546.392 105.364L546.208 98.1642C546.197 97.7045 545.82 97.3387 545.36 97.3387" fill="#F6ECDE"/>
<path d="M550.679 78.1833C553.041 78.3005 563.046 78.7966 569.301 79.1068C569.762 79.1291 570.12 79.5154 570.107 79.9751L569.104 116.93C569.092 117.392 568.711 117.759 568.247 117.754L520.932 117.246C520.453 117.241 520.065 117.631 520.074 118.109L520.204 125.22C520.213 125.696 520.614 126.072 521.092 126.049L572.085 123.704L574.013 123.616C574.426 123.596 574.764 123.284 574.816 122.874L575.054 120.966L583.388 54.4006C583.448 53.9186 583.092 53.4855 582.607 53.4502L571.733 52.6684C571.251 52.6334 570.838 53.0076 570.825 53.4896L570.371 70.21C570.359 70.6313 570.039 70.981 569.619 71.0281L554.807 72.7131C554.385 72.7613 553.992 72.4912 553.888 72.0796L547.763 47.9232C547.643 47.4527 547.155 47.1788 546.69 47.3217L539.756 49.456C539.284 49.6021 539.036 50.1195 539.218 50.5779L549.487 76.4332C549.487 76.4332 549.779 77.1712 549.982 77.6821C550.098 77.9721 550.366 78.1674 550.679 78.1833Z" fill="#F6ECDE"/>
<path d="M305.624 126.962L305.583 119.08C305.58 118.597 305.173 118.213 304.689 118.239C300.453 118.466 286.392 119.249 282.489 119.456C282.041 119.48 281.69 119.849 281.687 120.298L281.674 123.011L281.444 165.19C281.442 165.65 281.807 166.027 282.267 166.041L286.261 166.16C286.72 166.173 287.106 165.819 287.133 165.362L288.274 145.537C288.298 145.12 288.622 144.783 289.038 144.742L298.939 143.765C299.427 143.717 299.773 143.266 299.693 142.783L298.668 136.642C298.588 136.164 298.123 135.849 297.649 135.953L289.806 137.68C289.257 137.802 288.744 137.366 288.777 136.805L289.286 127.969C289.312 127.506 289.707 127.151 290.17 127.171L304.739 127.812C305.223 127.834 305.627 127.445 305.624 126.961" fill="#F6ECDE"/>
<path d="M313.164 150.538C313.298 144.752 313.645 130.626 313.744 126.335C313.756 125.791 314.142 125.372 314.593 125.403L325.652 128.492C326.059 128.521 326.378 128.916 326.391 129.405C326.589 136.221 326.991 142.897 327.499 149.783C327.54 150.337 327.178 150.823 326.714 150.834C322.399 150.942 318.231 151.126 314.011 151.499C313.545 151.541 313.151 151.101 313.164 150.538ZM332.438 122.189C332.427 121.643 332.042 121.225 331.589 121.268C327.786 121.625 313.83 120.597 311.935 120.787L310.907 120.882C310.526 120.917 310.217 121.272 310.171 121.727L310.053 122.859C309.819 125.116 307.139 152.597 306.53 158.468C306.468 159.073 306.883 159.587 307.387 159.531C315.412 158.643 323.649 157.348 331.556 155.748C331.932 155.673 332.213 155.289 332.228 154.83C332.578 144.074 332.68 132.988 332.438 122.189" fill="#F6ECDE"/>
<path d="M348.527 122.526L348.473 121.477C348.451 121.035 348.091 120.685 347.647 120.674L342.618 120.552C342.173 120.541 341.796 120.876 341.753 121.318L339.086 149.478C339.039 149.967 339.417 150.394 339.909 150.406L348.332 150.609C348.826 150.621 349.225 150.212 349.201 149.72L348.977 131.392C348.963 131.111 349.09 130.841 349.315 130.673L355.674 125.911C356.02 125.653 356.502 125.694 356.799 126.005C356.949 126.163 357.032 126.372 357.032 126.59L357.021 134.479C357.02 134.946 357.398 135.326 357.866 135.328L362.777 135.347C363.247 135.349 363.629 134.97 363.63 134.502C363.634 132.042 363.635 125.683 363.641 123.717C363.642 123.404 363.471 123.119 363.197 122.97C361.441 122.026 358.616 120.503 356.875 119.567C356.615 119.427 356.304 119.431 356.048 119.58C355.042 120.166 352.395 121.706 349.801 123.215C349.251 123.535 348.559 123.16 348.527 122.526" fill="#F6ECDE"/>
<path d="M310.623 203.235L294.647 205.22C294.11 205.42 293.534 205.043 293.502 204.472L292.422 184.666C292.394 184.169 292.8 183.756 293.299 183.773L322.155 184.862C322.654 184.879 323.061 184.463 323.03 183.964L322.356 172.909C322.326 172.412 321.88 172.049 321.388 172.122C316.383 172.876 289.764 176.104 285.497 176.737C285.095 176.797 284.796 177.133 284.779 177.537L284.671 179.985L281.63 249.415C281.609 249.898 281.997 250.301 282.482 250.299L295.108 250.232C295.593 250.229 295.977 249.821 295.95 249.338L294.044 214.386C294.019 213.935 294.354 213.543 294.805 213.498L313.299 214.229C313.812 214.177 314.16 213.685 314.037 213.185L311.745 203.826C311.625 203.333 311.1 203.056 310.624 203.234" fill="#F6ECDE"/>
<path d="M345.909 165.39L331.031 163.573C330.567 163.519 330.145 163.852 330.09 164.317L327.345 246.235L327.049 250.303C327.013 250.796 327.405 251.215 327.9 251.212L331.879 251.191L456.69 253.542C457.239 253.523 457.624 252.996 457.477 252.468L454.678 240.785C454.568 240.39 454.188 240.131 453.779 240.17L341.391 243.381C340.826 243.436 340.369 242.931 340.478 242.376L346.643 166.394C346.738 165.909 346.399 165.447 345.909 165.39" fill="#F6ECDE"/>
<path d="M457.952 134.014L448.087 134.466C447.618 134.487 447.255 134.886 447.278 135.355L450.808 223.137C450.413 223.122 450.337 223.119 449.98 223.105L443.239 175.845L442.472 171.189C442.393 170.707 441.923 170.392 441.446 170.5L435.653 171.822C435.622 171.829 435.596 171.836 435.566 171.846C434.703 172.148 431.923 173.128 430.53 173.618C430.193 173.736 429.969 174.053 429.968 174.411L429.958 176.764L424.856 218.404C424.841 218.795 424.557 219.126 424.172 219.2L423.66 219.301L423.047 138.371C423.034 137.89 422.624 137.516 422.143 137.548L408.182 138.454C407.701 138.485 407.342 138.91 407.394 139.39L417.284 223.291L417.477 225.063C417.517 225.435 417.793 225.736 418.162 225.804C420.867 226.303 427.917 227.605 429.907 227.972L434 228.727C434.525 228.824 435.009 228.419 435.002 227.886L434.951 223.015L437.271 207.323C437.267 206.255 438.838 206.16 438.962 207.22L441.597 228.073C441.599 228.091 441.601 228.106 441.604 228.122L442.021 230.489C442.08 230.831 442.337 231.099 442.676 231.171C447.892 232.262 455.865 233.934 461.243 235.06C461.786 235.173 462.286 234.744 462.261 234.191L461.999 228.408L458.838 134.823C458.817 134.355 458.419 133.993 457.951 134.015" fill="#F6ECDE"/>
<path d="M477.586 177.072L487.852 177.461C488.345 177.48 488.75 177.075 488.732 176.582L488.378 167.502C488.36 167.01 487.926 166.638 487.436 166.693L476.626 167.911C476.154 167.963 475.731 167.62 475.686 167.149L473.117 139.917C473.069 139.407 473.483 138.97 473.996 138.992L493.537 139.788C494.013 139.807 494.412 139.431 494.419 138.955L494.532 131.839C494.54 131.363 494.157 130.974 493.68 130.978C488.933 131.031 470.137 131.246 465.583 131.295C465.098 131.3 464.719 131.709 464.748 132.192L464.934 135.3L472.023 253.022L472.311 257.789C472.339 258.264 472.749 258.622 473.224 258.583C477.669 258.209 489.818 256.85 494.441 256.472C494.883 256.436 495.221 256.065 495.219 255.622L495.181 248.387C495.179 247.927 494.814 247.552 494.353 247.545C492.642 247.515 488.482 247.425 483.968 247.202C483.547 247.181 483.204 246.854 483.165 246.435L476.709 177.997C476.661 177.487 477.073 177.052 477.586 177.071" fill="#F6ECDE"/>
<path d="M508.62 140.823L519.016 143.099C519.349 143.172 519.606 143.435 519.669 143.77L523.652 164.929C523.747 165.436 523.37 165.91 522.853 165.931L510.278 166.452C509.821 166.47 509.431 166.124 509.397 165.669L507.592 141.714C507.55 141.149 508.066 140.702 508.62 140.824M528.057 172.113L530.283 171.767C530.696 171.703 531.002 171.353 531.001 170.935C530.997 163.995 530.973 140.154 530.97 133.158C530.97 132.688 530.594 132.31 530.125 132.311C525.017 132.331 507.62 132.38 503.841 132.398L500.519 132.409C500.046 132.411 499.666 132.798 499.674 133.271L499.724 136.163L501.742 254.556C501.751 255.033 502.152 255.409 502.628 255.388L515.235 254.832C515.713 254.811 516.079 254.399 516.043 253.923L510.152 175.687C510.117 175.246 510.429 174.854 510.866 174.786L513.738 174.339C514.206 174.267 514.642 174.59 514.708 175.058L526.303 257.045C526.372 257.526 526.83 257.852 527.306 257.759L540.858 255.109C541.342 255.015 541.643 254.531 541.514 254.056L519.901 174.333C519.769 173.845 520.09 173.352 520.589 173.275L528.057 172.113Z" fill="#F6ECDE"/>
<path d="M572.634 176.535C572.409 176.41 572.14 176.394 571.9 176.491L570.724 176.972L552.53 184.41C552.041 184.609 551.49 184.319 551.379 183.803C551.093 182.478 550.846 181.324 550.846 181.324L551.392 183.405L551.168 141.882L550.949 143.266C550.949 143.266 551.108 141.942 551.291 140.414C551.354 139.895 551.868 139.553 552.371 139.701L569.551 144.706C569.955 144.823 570.213 145.22 570.154 145.636L567.185 166.896C567.115 167.395 567.49 167.843 567.993 167.86C570.611 167.95 577.979 168.203 580.6 168.294C581.103 168.311 581.508 167.894 581.472 167.393C581.135 162.528 579.886 142.687 579.595 138.703C579.567 138.318 579.287 138.003 578.908 137.932C573.84 136.99 552.822 133.059 547.772 132.123C547.417 132.058 547.064 132.217 546.884 132.528C545.694 134.597 543.254 138.919 542.191 140.746C542.115 140.877 542.079 141.02 542.08 141.171L542.085 141.931L542.307 183.453C542.307 183.453 542.311 184.201 542.313 184.66C542.314 184.886 542.405 185.099 542.566 185.258C543.546 186.218 547.022 189.595 547.219 189.802L548.601 191.153C548.812 191.359 549.114 191.441 549.399 191.37L550.551 191.084L570.012 186.26L570.06 186.348L568.557 248.999C568.554 249.106 568.53 249.213 568.487 249.312L568.359 249.613C568.249 249.867 568.023 250.053 567.751 250.108L558.859 251.944C558.683 251.981 558.5 251.96 558.336 251.886L557.232 251.384C556.977 251.268 556.797 251.035 556.748 250.761L548.248 203.026C548.168 202.577 547.748 202.272 547.296 202.335L541.114 203.191C540.658 203.254 540.337 203.667 540.388 204.124L546.201 255.644L546.589 259.088C546.634 259.481 546.94 259.792 547.334 259.834C549.889 260.114 554.793 260.649 556.908 260.88L558.548 261.06L559.08 260.95C560.561 260.645 571.733 258.337 574.297 257.808C574.568 257.752 574.79 257.568 574.899 257.314L575.645 255.579L577.262 251.814L577.545 251.157L577.609 250.322L582.623 185.662L582.847 182.766C582.873 182.437 582.706 182.122 582.416 181.962C580.671 180.991 576.705 178.798 575.42 178.08L572.634 176.534L572.634 176.535Z" fill="#F6ECDE"/>
<path d="M603.059 157.011L601.22 148.856L604.583 148.781L604.177 156.915C604.144 157.572 603.204 157.653 603.059 157.011Z" fill="#F6ECDE"/>
<path d="M26.5859 31.8514L0.21994 17.4957L7.97637 8.26689L28.974 28.6147C30.6702 30.2583 28.662 32.9823 26.5856 31.8517" fill="#F6ECDE"/>
<path d="M658.176 263.855L680.89 244.239L686.824 254.731L660.374 267.225C658.237 268.234 656.387 265.4 658.176 263.855Z" fill="#F6ECDE"/>
<path d="M665.474 282.113L681.045 294.853L674.783 299.965L663.497 283.947C662.585 282.653 664.248 281.109 665.474 282.113Z" fill="#F6ECDE"/>
<path d="M41.7752 23.4438L36.5586 1.1849C36.4817 0.857508 36.7478 0.55034 37.0841 0.579009L42.9331 1.0738C43.4961 1.71169 43.8239 2.08285 44.3868 2.72048L43.5345 23.2771C43.4917 24.3128 42.0113 24.4528 41.7752 23.4438Z" fill="#F6ECDE"/>
<path d="M625.786 178.546L633.826 176.215L634.107 179.563L625.951 179.655C625.292 179.663 625.153 178.73 625.786 178.546Z" fill="#F6ECDE"/>
<path d="M584.255 175.564L576.016 174.08L577.256 170.957L584.602 174.497C585.195 174.784 584.903 175.68 584.255 175.564Z" fill="#F6ECDE"/>
<path d="M48.614 252.281L52.5083 30.5475L272.378 37.798L274.599 37.8704L274.86 35.5229L277.497 11.8188L608.606 29.0191C620.835 110.975 633.633 191.945 647.31 273.555C447.505 265.795 248.501 258.64 48.6137 252.281M614.625 22.3523L611.825 22.1997L274.199 3.74616L270.044 3.51911L254.239 15.28C253.874 15.2608 253.563 15.5404 253.542 15.9038L252.625 32.443L50.8377 26.9854L49.1 26.9386L31.0386 36.3156C30.6733 36.3049 30.3677 36.5928 30.3572 36.9576L23.9379 263.255C23.9271 263.618 24.2124 263.921 24.5767 263.934L631.506 286.493L654.586 280.923C654.955 280.935 655.323 280.946 655.69 280.957C642.805 194.839 629.016 108.094 614.625 22.3523Z" fill="#F6ECDE"/>
<path d="M596.201 265.965L593.387 264.413L601.147 256.497L598.971 256.274L598.476 257.825C598.251 258.528 597.497 258.917 596.795 258.691C596.091 258.467 595.702 257.715 595.926 257.012L597.083 253.394L603.354 254.038L605.83 255.541L598.232 263.29L604.348 263.281L603.99 259.665C603.919 258.931 604.456 258.277 605.191 258.205C605.922 258.135 606.581 258.669 606.654 259.403L607.299 265.95L596.201 265.965Z" fill="#F6ECDE"/>
<path d="M628.162 267.273L618.65 267.042L616.495 265.637L620.717 257.226L619.147 257.329L619.213 257.559C619.412 258.269 618.998 259.007 618.286 259.208C617.578 259.406 616.837 258.993 616.637 258.283L615.677 254.879L621.747 254.481L624.216 256.216L620.106 264.405L624.412 264.509L624.07 263.492C623.835 262.792 624.212 262.035 624.913 261.8C625.611 261.567 626.371 261.943 626.607 262.642L628.162 267.273Z" fill="#F6ECDE"/>
<path d="M610.307 257.461L610.647 263.073L613.077 262.796L612.849 258.144L610.307 257.461ZM608.147 266.048L607.413 253.915L615.428 256.07L615.871 265.165L608.147 266.048Z" fill="#F6ECDE"/>
<path d="M631.152 264.349L633.22 264.479L633.422 262.138L630.004 261.845L631.152 264.349ZM635.664 267.31L629.387 266.916L625.765 259.021L628.943 252.706L634.997 255.534C635.666 255.848 635.956 256.642 635.643 257.311C635.33 257.98 634.533 258.268 633.863 257.954L630.166 256.228L628.743 259.056L636.316 259.704L635.664 267.31Z" fill="#F6ECDE"/>
<path d="M611.775 289.18C618.648 288.483 625.855 288.496 632.772 288.625L632.362 288.696C635.52 287.498 638.688 286.323 641.901 285.263C645.108 284.191 648.342 283.187 651.65 282.375C645.595 285.547 639.13 288.49 632.72 290.752C625.801 290.544 618.612 290.21 611.775 289.18Z" fill="#F6ECDE"/>
<path d="M622.799 293.333L633.772 292.532L633.361 292.603L643.869 289.682L634.132 294.592L633.938 294.69L633.72 294.665L622.799 293.333Z" fill="#F6ECDE"/>
<path d="M619.045 33.9717C617.614 29.5262 616.613 24.9924 615.701 20.4276L616.591 21.269C609.173 20.5428 601.759 19.6106 594.522 17.7591C601.989 17.5638 609.425 18.3031 616.82 19.2448L617.604 19.3387C618.3 24.1948 618.915 29.0529 619.045 33.9719" fill="#F6ECDE"/>
<path d="M262.252 5.30145C259.283 8.97031 255.802 12.1753 252.239 15.248L252.611 14.4663C252.535 16.7071 252.43 18.9468 252.205 21.1835C251.992 23.4212 251.709 25.6567 251.219 27.888C250.839 25.6354 250.665 23.3892 250.561 21.1441C250.437 18.741 250.451 16.3426 250.489 13.9428C254.198 10.7933 258.023 7.74164 262.252 5.30145Z" fill="#F6ECDE"/>
<path d="M21.7153 247.604C22.0132 253.979 21.7207 260.356 21.2752 266.714L20.206 265.579C27.4561 265.437 34.7224 265.484 41.9429 266.258C34.7535 267.28 27.4925 267.578 20.2424 267.686L19.0676 267.682C19.6541 260.956 20.3459 254.226 21.7153 247.604Z" fill="#F6ECDE"/>
<path d="M18.0094 257.092C18.6331 261.215 18.4718 265.31 18.0981 269.427L17.0748 268.296C20.2181 268.468 23.3316 268.762 26.4023 269.572C22.9417 270.308 19.4436 270.403 15.9341 270.396C16.186 265.894 16.639 261.428 18.0094 257.092Z" fill="#F6ECDE"/>
<path d="M27.2214 43.5558C28.3226 58.478 27.9691 73.5013 26.1319 88.351C25.0189 73.4299 25.3959 58.4066 27.2214 43.5558Z" fill="#F6ECDE"/>
<path d="M468.834 282.879C453.89 283.978 438.845 283.625 423.973 281.791C438.916 280.679 453.96 281.056 468.834 282.879Z" fill="#F6ECDE"/>
<path d="M458.541 286.256C451.154 287.539 443.534 287.367 436.219 285.714C443.604 284.421 451.224 284.617 458.541 286.256Z" fill="#F6ECDE"/>
<path d="M22.53 52.523C23.8256 59.4471 23.6623 66.6197 22.0206 73.4711C20.7133 66.548 20.8991 59.3767 22.53 52.523Z" fill="#F6ECDE"/>
<path d="M253.127 8.76092C252.204 10.4887 250.94 11.8892 249.541 13.2L249.904 12.494C249.754 15.0315 249.365 17.4939 248.219 19.833C247.448 17.1827 247.529 14.5236 247.874 11.8487C249.477 10.5722 251.151 9.44667 253.127 8.76092Z" fill="#F6ECDE"/>
<path d="M622.051 27.9635C620.436 24.6584 619.346 21.1387 618.393 17.603L619.345 18.4039C617.172 18.2823 615.006 18.053 612.846 17.7555C610.687 17.4386 608.533 17.0516 606.396 16.415C608.602 16.0897 610.789 16.0139 612.972 16.0085C615.413 16.0203 617.855 16.1322 620.283 16.3636C621.162 20.1755 621.929 24.0363 622.051 27.9635Z" fill="#F6ECDE"/>
<path d="M51.6165 189.915C52.6729 204.686 53.0392 219.495 53.1897 234.299C53.241 239.233 53.2389 244.166 53.2143 249.101L52.3461 248.207C58.3307 248.585 64.3163 248.989 70.288 249.542C72.2811 249.711 74.2731 249.892 76.2639 250.111C74.2624 250.163 72.2616 250.177 70.2621 250.18C63.9828 250.237 57.7034 250.126 51.4263 249.999C51.2756 244.775 51.1474 239.549 51.0802 234.324C50.8859 219.52 50.9039 204.707 51.6165 189.915" fill="#F6ECDE"/>
<path d="M55.3763 229.038C56.1507 234.658 56.4476 240.322 56.6078 245.986L55.6175 244.966C63.6239 245.218 71.6059 245.687 79.531 246.997C71.5234 247.643 63.5308 247.445 55.5319 247.029L54.5524 246.972C54.5268 240.987 54.7106 234.993 55.376 229.038" fill="#F6ECDE"/>
<path d="M613.798 90.5165C610.677 76.2824 608.23 61.9116 605.994 47.5165C605.249 42.719 604.552 37.9154 603.884 33.1062L604.801 33.8741C598.803 33.8603 592.805 33.8176 586.81 33.6225C584.81 33.5724 582.811 33.5117 580.81 33.4113C582.805 33.2375 584.802 33.1021 586.798 32.9772C593.04 32.541 599.293 32.2723 605.543 32.0258C606.426 37.0738 607.281 42.1293 608.081 47.1901C610.353 61.5811 612.418 76.0093 613.798 90.5165Z" fill="#F6ECDE"/>
<path d="M602.511 47.3358C601.695 43.6999 601.19 40.0288 600.775 36.3384L601.729 37.2077C593.733 37.6098 585.701 37.6856 577.739 36.716C585.661 35.452 593.69 35.2282 601.694 35.3337L602.618 35.3562C602.762 39.3494 602.818 43.3395 602.511 47.3358Z" fill="#F6ECDE"/>
</g>
</g>
<defs>
<clipPath id="clip0_21_1306">
<rect width="687" height="300" fill="white"/>
</clipPath>
</defs>
</svg>
