<?xml version="1.0" encoding="UTF-8" standalone="no"?><!DOCTYPE svg PUBLIC "-//W3C//DTD SVG 1.1//EN" "http://www.w3.org/Graphics/SVG/1.1/DTD/svg11.dtd"><svg width="100%" height="100%" viewBox="0 0 786 758" version="1.1" xmlns="http://www.w3.org/2000/svg" xmlns:xlink="http://www.w3.org/1999/xlink" xml:space="preserve" xmlns:serif="http://www.serif.com/" style="fill-rule:evenodd;clip-rule:evenodd;stroke-linejoin:round;stroke-miterlimit:2;"><rect id="Page-5" serif:id="Page 5" x="0" y="0" width="785.804" height="757.646" style="fill:none;"/><path d="M580.283,188.302c5.196,-0.154 9.283,-4.492 9.129,-9.688c-0.154,-5.196 -4.492,-9.283 -9.688,-9.129c-5.196,0.154 -9.283,4.492 -9.129,9.688c0.154,5.196 4.492,9.283 9.688,9.129" style="fill:#111;fill-rule:nonzero;"/><path d="M604.615,404.196c-3.675,0.108 -6.562,3.175 -6.454,6.85c0.108,3.675 3.175,6.562 6.85,6.454c3.671,-0.108 6.562,-3.175 6.454,-6.85c-0.108,-3.675 -3.175,-6.562 -6.85,-6.454" style="fill:#111;fill-rule:nonzero;"/><path d="M108.953,589.046c0.108,3.675 3.175,6.562 6.85,6.454c3.675,-0.108 6.562,-3.175 6.454,-6.85c-0.108,-3.671 -3.175,-6.562 -6.85,-6.454c-3.675,0.108 -6.562,3.175 -6.454,6.85" style="fill:#111;fill-rule:nonzero;"/><path d="M550.761,152.466c0.108,3.6 3.108,6.429 6.708,6.321c3.6,-0.104 6.429,-3.108 6.321,-6.708c-0.104,-3.596 -3.108,-6.429 -6.708,-6.321c-3.596,0.104 -6.429,3.108 -6.321,6.708" style="fill:#111;fill-rule:nonzero;"/><path d="M586.473,140.907c2.6,-0.075 4.642,-2.246 4.562,-4.842c-0.075,-2.6 -2.242,-4.642 -4.842,-4.567c-2.596,0.079 -4.642,2.246 -4.562,4.846c0.075,2.596 2.246,4.638 4.842,4.562" style="fill:#111;fill-rule:nonzero;"/><path d="M141.217,572.002c2.6,-0.075 4.642,-2.246 4.562,-4.842c-0.075,-2.6 -2.242,-4.642 -4.842,-4.567c-2.596,0.079 -4.642,2.246 -4.562,4.846c0.075,2.596 2.246,4.638 4.842,4.562" style="fill:#111;fill-rule:nonzero;"/><path d="M611.81,393.42c0.075,2.596 2.246,4.642 4.842,4.562c2.6,-0.075 4.642,-2.242 4.567,-4.842c-0.079,-2.596 -2.246,-4.642 -4.846,-4.562c-2.596,0.075 -4.638,2.246 -4.562,4.842" style="fill:#111;fill-rule:nonzero;"/><path d="M108.406,468.446c4.096,-0.121 7.317,-3.542 7.196,-7.637c-0.121,-4.096 -3.542,-7.317 -7.638,-7.196c-4.096,0.121 -7.317,3.542 -7.196,7.637c0.125,4.096 3.542,7.317 7.637,7.196" style="fill:#111;fill-rule:nonzero;"/><path d="M160.331,621.685c4.096,-0.121 7.317,-3.542 7.196,-7.638c-0.121,-4.096 -3.542,-7.317 -7.637,-7.196c-4.096,0.121 -7.317,3.542 -7.196,7.638c0.121,4.096 3.542,7.317 7.637,7.196" style="fill:#111;fill-rule:nonzero;"/><path d="M55.988,710.055c0.396,0.383 0.95,0.604 1.546,0.546l20.062,-1.3c0.542,-0.033 1.046,-0.279 1.388,-0.679c0.304,-0.358 0.45,-0.8 0.408,-1.25l-7.067,-77.229c0.008,-0.013 0.071,-0.046 0.171,-0.038l4.463,0.342l21.275,49.021c0.412,0.946 1.7,0.967 2.196,0.987c0.913,0.021 8.992,0.229 11.608,-1.029l0.308,-0.15l11.113,-36.646l10.117,0.942l-1.783,65.938c-0.012,0.471 0.167,0.917 0.504,1.254c0.342,0.337 0.817,0.529 1.308,0.529l0.071,0l18.163,-0.692c0.496,-0.021 0.971,-0.242 1.296,-0.604c0.317,-0.354 0.471,-0.804 0.437,-1.267l-5.629,-75.717c-0.062,-0.904 -0.883,-1.567 -1.867,-1.617l-5.15,0.108c-1.217,0.025 -6.183,0.129 -11.446,0.242c-5.517,0.121 -11.358,0.246 -13.533,0.288c-0.788,0.017 -1.454,0.5 -1.667,1.2l-8.942,30.033c-0.046,0.038 -0.192,0.033 -0.229,0l-16.304,-45.025c-0.287,-0.783 -1.142,-1.312 -2.025,-1.204l-26.017,2.383c-0.942,0.087 -1.65,0.767 -1.683,1.621l-3.608,87.725c-0.021,0.488 0.163,0.942 0.517,1.288" style="fill:#111;fill-rule:nonzero;"/><path d="M157.503,637.234l0.083,4.363l1.279,67.821c0.012,0.737 0.617,1.329 1.354,1.333l6.417,0.038c0.738,0.004 1.342,-0.579 1.367,-1.317l1.058,-31.917c0.025,-0.671 0.529,-1.225 1.196,-1.308l15.858,-1.958c0.783,-0.096 1.321,-0.833 1.171,-1.608l-1.887,-9.829c-0.146,-0.767 -0.904,-1.254 -1.662,-1.067l-12.521,3.079c-0.875,0.217 -1.717,-0.462 -1.688,-1.367l0.471,-14.225c0.025,-0.746 0.646,-1.329 1.392,-1.317l23.413,0.462c0.779,0.017 1.412,-0.625 1.387,-1.404l-0.375,-12.667c-0.025,-0.779 -0.692,-1.379 -1.467,-1.321c-6.792,0.533 -29.333,2.337 -35.592,2.825c-0.721,0.054 -1.267,0.663 -1.254,1.383" style="fill:#111;fill-rule:nonzero;"/><path d="M201.817,710.725l0.05,0l12.083,-0.358c0.463,-0.013 0.908,-0.221 1.213,-0.562c0.308,-0.346 0.467,-0.808 0.429,-1.267l-2.825,-33.383l17.846,0.263c0.487,-0.058 0.925,-0.325 1.196,-0.733c0.275,-0.408 0.358,-0.917 0.229,-1.392l-2.408,-8.917c-0.129,-0.467 -0.45,-0.858 -0.879,-1.075c-0.4,-0.2 -0.858,-0.233 -1.279,-0.1l-15.267,2.375l-1.567,-18.888l27.65,0.371c0.483,0.058 0.938,-0.188 1.263,-0.538c0.325,-0.35 0.487,-0.825 0.446,-1.3l-0.904,-10.583c-0.037,-0.475 -0.279,-0.913 -0.654,-1.204c-0.375,-0.283 -0.854,-0.413 -1.321,-0.321c-2.533,0.442 -10.808,1.688 -18.812,2.892c-6.958,1.046 -13.529,2.033 -15.446,2.367c-0.792,0.137 -1.379,0.825 -1.4,1.638l-1.338,68.987c-0.008,0.462 0.171,0.917 0.5,1.238c0.317,0.312 0.75,0.492 1.196,0.492" style="fill:#111;fill-rule:nonzero;"/><path d="M257.157,204.904l-43.825,-36.892l56.225,35.767l105.013,-5.646l60.783,-65.892l-54.933,69.6l8.125,30.196l79.571,70.442l-85.954,-65.229l-105.117,12.854l-76.712,49.988l63.146,-49.5l-6.321,-45.688Zm315.833,304.65l-4.212,-30.45l78.721,-4.233l6.658,24.758l-81.167,9.925Zm-549.908,-479.608c194.363,13.758 471.113,32.475 667.367,44.883c2.879,32.125 56.212,627.196 58.604,653.871l-189.654,-3.921c-0.712,-2 -1.875,-3.871 -3.587,-5.367c-5.042,-4.417 -9.979,-8.263 -14.971,-11.929c-24.804,-17.996 -50.663,-33.958 -77.888,-48.058c-4.121,-2.1 -12.625,-6.121 -16.858,-7.967c-1.792,-0.796 -3.642,-1.525 -5.508,-2.238c-9.271,-16.854 -14.192,-40.55 2.038,-54.687c7.929,-8.071 19.058,-8.379 30.162,-8.488c18.813,-0.175 43.092,3.942 67,5.304l9.554,17.263c0.037,0.058 0.1,0.1 0.171,0.108l18.425,5.546c0.062,0.008 0.129,-0.008 0.179,-0.054l1.65,-9.296c0.133,-0.113 0.1,-0.325 -0.058,-0.396l-16.975,-10.304c-0.021,-0.008 -0.038,-0.021 -0.054,-0.033l-2.692,-2.446c25.963,0.471 50.488,-3.583 65.867,-21.5c6.746,-8.171 10.475,-18.717 11.95,-28.892c0.642,-4.371 0.904,-8.725 0.954,-13.054l28.246,39.008l48.329,-48.312l-47.504,-24.012l0.242,-2.025l60.633,-10.35l-26.675,-88.458l-75.675,47.563l-1.925,25.067l-5.425,-22.446l-84.171,-6.671l2.558,68.538l34.45,-4.887l-20.933,19.154l21.8,34.971l55.542,-30.858l1.021,0.121c-0.167,59.971 -50.204,57.262 -97.704,51.025l-6.704,-19.221c-0.013,-0.042 -0.017,-0.079 -0.017,-0.121l-5.462,-37.529c0,-0.333 -0.35,-0.546 -0.646,-0.396l-17.579,-4.033c-0.112,0.054 -0.196,0.154 -0.229,0.275l-3.988,36.533c-0.037,0.125 -0.017,0.262 0.058,0.375l17.017,21.733c-11.062,-1.488 -21.604,-2.754 -30.892,-2.975c-12.138,-0.404 -26.842,0.15 -37.329,8.054c-1.167,0.792 -3.358,2.487 -4.404,3.438c-18.004,14.75 -20.392,37.837 -14.679,58.904c-1.429,-0.567 -2.837,-1.158 -4.217,-1.779c-15.008,-6.229 -29.521,-15.617 -40.304,-27.642c-22.183,-24.817 -27.1,-61.829 -27.075,-94.954c-0.033,-6.404 0.092,-12.8 0.279,-19.196c0.1,-0.5 0.113,-1.025 0.046,-1.554c0.379,-12.217 1.058,-24.421 1.846,-36.642l37.95,1.267c1.113,0.038 2.171,-0.458 2.854,-1.337l47.246,-60.867c0.779,-1.008 0.946,-2.362 0.429,-3.529l-7.85,-17.708c-0.879,-1.983 -3.35,-2.679 -5.137,-1.446l-73.354,50.625c0.333,-5.508 0.65,-11.017 0.904,-16.537c2.4,-46.633 1.917,-93.95 -6.825,-140.029l48.542,82.05l219.787,-3.296c3.7,-0.054 6.504,-3.354 5.967,-7.012l-17.133,-116.492c-0.429,-2.908 -2.863,-5.104 -5.796,-5.229l-189.425,-8.104c-1.646,-0.067 -3.058,-1.204 -3.475,-2.8c-0.592,-2.238 0.962,-4.471 3.267,-4.7l113.312,-11.208c2.354,-0.233 4.358,-1.796 5.158,-4.021l29.183,-81.038c1.4,-3.892 -1.383,-8.025 -5.517,-8.192l-239.65,-9.642c-3.829,-0.154 -6.863,3.213 -6.304,7.008l13.562,92.279l-55.217,-87.758c-1.104,-1.758 -3.025,-2.833 -5.096,-2.862l-167.083,-2.333c-3.829,-0.054 -6.767,3.379 -6.121,7.15l20.008,117.129c0.542,3.188 3.471,5.4 6.688,5.058l109.921,-11.779l-116.608,66.683c-2.329,1.333 -3.517,4.025 -2.938,6.642l38.604,174.108c0.963,4.333 6.075,6.238 9.638,3.583l192.354,-143.192c2.058,49.488 -3.262,99.296 -7.746,148.792l-13.525,-23.65c-0.908,-1.587 -2.567,-2.629 -4.312,-2.704l-108.879,-4.746c-2.833,-0.125 -4.9,2.275 -4.417,5.125l3.092,18.258c0.321,1.9 1.713,3.533 3.546,4.163l90.842,31.292c0.137,0.046 0.271,0.1 0.404,0.158l27.238,12.021c1.108,0.488 2.292,0.538 3.346,0.204c-0.996,27 0.271,54.292 9.379,79.821c1.75,5.033 3.887,9.825 6.3,14.421l-9.317,-1.75c-0.062,-0.013 -0.125,-0.029 -0.179,-0.058l-75.429,-37.188c-0.462,-0.229 -1.004,0.108 -1.004,0.625l0.05,28.129c0,0.192 0.083,0.379 0.225,0.508l43.225,39.512c0.15,0.142 0.358,0.204 0.562,0.175l56.679,-7.821c0.15,-0.021 0.283,-0.092 0.383,-0.188c12.042,13.508 27.288,24.158 44.258,31.717c8.079,4.021 17.204,6.833 25.571,10.142c7.267,2.892 16.033,7.317 22.975,11.079c20.392,11.208 40.271,24.087 59.233,37.642c3.071,2.221 6.188,4.508 9.283,6.846l-472.383,-9.762c-6.604,-202.267 -16.933,-483.646 -25.45,-684.275m753.088,710.983l-47.45,-686.533l-1.221,-17.637c-213.396,-9.621 -506.408,-17.496 -722.488,-25.383c2.246,219.642 3.3,522.038 7.813,738.95l17.75,0.108l732.504,4.479l14.062,0.087l-0.971,-14.071Z" style="fill:#111;fill-rule:nonzero;"/></svg>