<svg width="1920" height="480" viewBox="0 0 1920 480" fill="none" xmlns="http://www.w3.org/2000/svg">
<path d="M124.44 220.261L183.792 190.566L230.568 209.067L291.243 195.284L347.065 175.765L511.441 213.415C511.441 213.415 592.416 216.098 611.391 216.098C630.365 216.098 692.365 190.103 692.365 190.103L728.55 200.094C728.55 200.094 769.147 179.373 771.574 177.8C804.407 178.862 837.051 180.778 869.317 183.535L903.516 141.074L959.559 141.074L1005.01 99.7235L1094.76 101.127L1089.81 61.6283L1135.67 40.8396L1222.44 59.5494L1316.33 56.9509L1403.48 75.6607L1456.66 89.1733L1528.37 83.4564L1593.23 87.6051L1626.99 74.0064L1719.22 81.3146L1745.92 66.9759L1790.04 70.6762L1822.92 38.8536L1859.77 45.7916L1920 27.7527L1920 0.000350957L1859.77 18.5019L1822.92 11.6563L1789.16 43.4789L1745.03 39.7786L1719.22 54.1173L1626.99 46.7167L1592.79 60.5003L1528.37 56.8L1456.66 62.628L1403.48 48.8443L1316.33 30.3428L1223.88 33.0255L1135.63 14.524L1052.23 46.9016L1055.98 76.0416L987.58 69.196L941.466 111.009L880.791 114.155L846.592 156.616C821.733 153.772 796.341 151.823 770.692 150.788C768.265 152.36 727.667 172.99 727.667 172.99L692.365 162.999C692.365 162.999 630.365 188.901 611.391 188.901C592.416 188.901 511.441 186.311 511.441 186.311L347.065 148.66L291.243 168.272L230.568 182.055L183.792 163.554L124.44 193.249L58.2488 185.293L0.000124472 194.544L0.00012207 222.018L58.2488 212.768L124.44 220.261Z" fill="white" fill-opacity="0.2"/>
<path d="M1920 480L1920 26.713L1859.77 45.2145L1822.92 38.2764L1789.16 70.099L1745.03 66.3987L1719.22 80.2749L1626.99 72.7817L1592.79 86.5654L1528.37 82.8651L1456.66 88.6931L1403.48 74.9094L1316.33 56.4079L1223.88 59.0906L1135.63 40.589L1089.96 61.1257L1094.37 100.719L1006.11 98.9614L960.662 140.312L903.737 140.312L869.538 182.773C837.271 180.016 804.628 178.1 771.795 177.038C769.368 178.61 728.77 199.332 728.77 199.332L693.468 189.249C693.468 189.249 631.469 215.243 612.494 215.243C593.519 215.243 512.544 212.561 512.544 212.561L347.065 174.725L291.243 194.337L230.568 208.12L183.792 189.619L124.44 219.314L58.2487 211.358L2.26767e-05 220.609L0 480L1920 480Z" fill="#F6ECDE"/>
</svg>
